<svg width="48" height="48" viewBox="0 0 48 48" fill="none" xmlns="http://www.w3.org/2000/svg">
<path fill-rule="evenodd" clip-rule="evenodd" d="M24.2004 24.4605C30.4764 24.4605 35.5637 19.4321 35.5637 13.2302C35.5637 7.02682 30.4764 2 24.2004 2C17.9245 2 12.8387 7.02682 12.8387 13.2302C12.8387 19.4321 17.9245 24.4605 24.2004 24.4605ZM28.9992 33.8497C30.7236 33.435 33.6778 32.4265 35.7401 31.2688C37.8041 30.1126 37.5584 28.0076 37.0342 26.8216C36.51 25.634 34.3866 24.2705 32.415 25.3984C27.7678 28.1569 24.1971 27.8003 24.1971 27.8003C20.9033 27.8003 18.4421 26.6724 16.1638 25.4864C13.8855 24.2988 12.3474 25.634 11.6386 26.5546C10.9297 27.4735 10.1912 29.489 13.1157 31.3583C16.0385 33.2261 19.4872 33.8497 19.4872 33.8497L12.9294 40.1663C12.9294 40.1663 10.4665 42.598 12.8371 44.882C15.2076 47.1645 17.5453 45.1491 17.5453 45.1491L24.2877 38.743L30.7516 44.9716C30.7516 44.9716 33.1519 47.2855 35.5538 44.9716C37.9541 42.6577 35.5538 40.2558 35.5538 40.2558L28.9992 33.8497ZM29.1955 13.2286C29.1955 10.5016 26.9601 8.29289 24.2037 8.29289C21.4458 8.29289 19.2103 10.5016 19.2103 13.2286C19.2103 15.9541 21.4458 18.1643 24.2037 18.1643C26.9601 18.1643 29.1955 15.9525 29.1955 13.2286Z" fill="#506478"/>
</svg>
