<svg width="48" height="48" viewBox="0 0 48 48" fill="none" xmlns="http://www.w3.org/2000/svg">
<path fill-rule="evenodd" clip-rule="evenodd" d="M12.0761 38.3689C10.1307 35.3873 9 31.8257 9 28C9 17.5066 17.5066 9 28 9C31.8257 9 35.3873 10.1307 38.3689 12.0761C35.3002 4.97188 28.2307 0 20 0C8.9543 0 0 8.9543 0 20C0 28.2307 4.97188 35.3002 12.0761 38.3689Z" fill="white" fill-opacity="0.3"/>
<path fill-rule="evenodd" clip-rule="evenodd" d="M48 28C48 39.0457 39.0457 48 28 48C16.9543 48 8 39.0457 8 28C8 16.9543 16.9543 8 28 8C39.0457 8 48 16.9543 48 28ZM22 18H31C34.866 18 38 21.134 38 25C38 28.866 34.866 32 31 32H26V38H22V18ZM31 22H26V28H31C32.6569 28 34 26.6569 34 25C34 23.3431 32.6569 22 31 22Z" fill="white"/>
</svg>
