<svg width="48" height="48" viewBox="0 0 48 48" fill="none" xmlns="http://www.w3.org/2000/svg">
<path fill-rule="evenodd" clip-rule="evenodd" d="M10 48H16L20 34H6L10 48Z" fill="#285082"/>
<path fill-rule="evenodd" clip-rule="evenodd" d="M24 34H2V25C2 18.9249 6.92487 14 13 14C19.0751 14 24 18.9249 24 25V34Z" fill="#FFB345"/>
<path fill-rule="evenodd" clip-rule="evenodd" d="M46 40H28V33C28 28.0294 32.0294 24 37 24C41.9706 24 46 28.0294 46 33V40Z" fill="#CEDC00"/>
<path fill-rule="evenodd" clip-rule="evenodd" d="M32 48H42V40H32V48Z" fill="#285082"/>
<path fill-rule="evenodd" clip-rule="evenodd" d="M18 5.00016C18 2.23876 15.7613 0 13 0C10.2387 0 8 2.23876 8 5.00016C8 7.76124 10.2387 10 13 10C15.7613 10 18 7.76124 18 5.00016Z" fill="#6EA0E3"/>
<path fill-rule="evenodd" clip-rule="evenodd" d="M42 15.0002C42 12.2388 39.7613 10 37 10C34.2387 10 32 12.2388 32 15.0002C32 17.7612 34.2387 20 37 20C39.7613 20 42 17.7612 42 15.0002Z" fill="#6EA0E3"/>
</svg>
