<svg width="48" height="48" viewBox="0 0 48 48" fill="none" xmlns="http://www.w3.org/2000/svg">
<path fill-rule="evenodd" clip-rule="evenodd" d="M6 4H14V8H34V4H42V44H6V4ZM13.6568 22.8995L7.99994 17.2426L10.8284 14.4142L13.6569 17.2427L17.8995 13L20.728 15.8284L13.6568 22.8995ZM37.9999 18H23.9999V22H37.9999V18ZM37.9999 28H23.9999V32H37.9999V28ZM7.99976 28.2426L13.6566 33.8995L20.7278 26.8284L17.8993 24L13.6567 28.2427L10.8282 25.4142L7.99976 28.2426Z" fill="white" fill-opacity="0.3"/>
<rect x="14" y="2" width="20" height="6" fill="white" fill-opacity="0.6"/>
<rect x="24" y="18" width="14" height="4" fill="white"/>
<rect x="24" y="28" width="14" height="4" fill="white"/>
<path d="M13.6569 22.8995L8 17.2426L10.8284 14.4142L13.6569 17.2427L17.8996 13L20.728 15.8284L13.6569 22.8995Z" fill="white"/>
<path d="M13.6566 33.8995L7.99976 28.2426L10.8282 25.4142L13.6567 28.2427L17.8993 24L20.7278 26.8284L13.6566 33.8995Z" fill="white"/>
</svg>
