<svg width="48" height="48" viewBox="0 0 48 48" fill="none" xmlns="http://www.w3.org/2000/svg">
<path fill-rule="evenodd" clip-rule="evenodd" d="M22 42H0V33C0 26.9249 4.92487 22 11 22C17.0751 22 22 26.9249 22 33V42Z" fill="#506478"/>
<path fill-rule="evenodd" clip-rule="evenodd" d="M16 13.0002C16 10.2388 13.7613 8 11 8C8.23868 8 6 10.2388 6 13.0002C6 15.7612 8.23868 18 11 18C13.7613 18 16 15.7612 16 13.0002Z" fill="#506478" fill-opacity="0.6"/>
<path fill-rule="evenodd" clip-rule="evenodd" d="M42 13.0002C42 10.2388 39.7613 8 37 8C34.2387 8 32 10.2388 32 13.0002C32 15.7612 34.2387 18 37 18C39.7613 18 42 15.7612 42 13.0002Z" fill="#506478" fill-opacity="0.6"/>
<path fill-rule="evenodd" clip-rule="evenodd" d="M48 42H26V33C26 26.9249 30.9249 22 37 22C43.0751 22 48 26.9249 48 33V42Z" fill="#506478"/>
</svg>
