<svg width="48" height="48" viewBox="0 0 48 48" fill="none" xmlns="http://www.w3.org/2000/svg">
<path d="M12 6H8V10.3414C8.62556 10.1203 9.29873 10 10 10C10.7013 10 11.3744 10.1203 12 10.3414V6Z" fill="#506478" fill-opacity="0.3"/>
<path d="M12 21.6586C11.3744 21.8797 10.7013 22 10 22C9.29873 22 8.62556 21.8797 8 21.6586V42H12V21.6586Z" fill="#506478" fill-opacity="0.3"/>
<path d="M26 6H22V26.3414C22.6256 26.1203 23.2987 26 24 26C24.7013 26 25.3744 26.1203 26 26.3414V6Z" fill="#506478" fill-opacity="0.3"/>
<path d="M26 37.6586C25.3744 37.8797 24.7013 38 24 38C23.2987 38 22.6256 37.8797 22 37.6586V42H26V37.6586Z" fill="#506478" fill-opacity="0.3"/>
<path d="M40 6H36V14.3414C36.6256 14.1203 37.2987 14 38 14C38.7013 14 39.3744 14.1203 40 14.3414V6Z" fill="#506478" fill-opacity="0.3"/>
<path d="M40 25.6586C39.3744 25.8797 38.7013 26 38 26C37.2987 26 36.6256 25.8797 36 25.6586V42H40V25.6586Z" fill="#506478" fill-opacity="0.3"/>
<circle cx="10" cy="16" r="6" fill="#506478" fill-opacity="0.6"/>
<circle cx="24" cy="32" r="6" fill="#506478"/>
<circle cx="38" cy="20" r="6" fill="#506478" fill-opacity="0.3"/>
</svg>
