<svg width="75" height="29" viewBox="0 0 75 29" fill="none" xmlns="http://www.w3.org/2000/svg">
<path fill-rule="evenodd" clip-rule="evenodd" d="M12.866 26.6807C6.16272 26.6807 0.675737 21.1925 0.675737 14.4543C0.675737 7.71622 6.16272 2.22793 12.866 2.22793C19.5694 2.22793 25.0563 7.71622 25.0563 14.4543C25.0563 21.1925 19.5694 26.6807 12.866 26.6807ZM13.2985 1.54868C6.21678 1.54868 0.432472 7.33585 0.432472 14.4543C0.432472 21.5728 6.21678 27.36 13.2985 27.36C20.3802 27.36 26.1646 21.5728 26.1646 14.4543C26.1646 7.33585 20.3802 1.54868 13.2985 1.54868ZM13.9202 28.1751C6.40599 28.1751 0.270295 22.0347 0.270295 14.4815C0.270295 6.95547 6.40599 0.787925 13.9202 0.787925C21.4344 0.787925 27.5701 6.9283 27.5701 14.4815C27.5701 22.0347 21.4344 28.1751 13.9202 28.1751ZM14.3526 0C6.43302 0 0 6.46642 0 14.4C0 22.3336 6.43302 28.8 14.3526 28.8C22.2453 28.8 28.7053 22.3336 28.7053 14.4C28.7053 6.46642 22.2453 0 14.3526 0ZM13.4607 13.2317C12.785 13.2317 12.2443 13.7751 12.2443 14.4543C12.2443 15.1336 12.785 15.677 13.4607 15.677C14.1364 15.677 14.677 15.1336 14.677 14.4543C14.677 13.7751 14.1364 13.2317 13.4607 13.2317ZM11.8659 25.2407C5.94649 25.2407 1.13524 20.4046 1.13524 14.4543C1.13524 8.50416 5.97352 3.66793 11.893 3.66793C17.8124 3.66793 22.6507 8.50416 22.6507 14.4543C22.6237 20.4046 17.7854 25.2407 11.8659 25.2407ZM12.2714 2.98868C5.97352 2.98868 0.837912 8.15096 0.837912 14.4543C0.837912 20.7849 5.97352 25.92 12.2714 25.92C18.5693 25.92 23.7049 20.7578 23.7049 14.4543C23.7049 8.15096 18.5693 2.98868 12.2714 2.98868ZM15.0825 17.9049C13.1904 17.9049 11.6497 16.3562 11.6497 14.4543C11.6497 12.5525 13.1904 11.0038 15.0825 11.0038C16.9745 11.0038 18.5152 12.5525 18.5152 14.4543C18.5152 16.3562 16.9745 17.9049 15.0825 17.9049ZM15.515 10.2702C13.2445 10.2702 11.3524 12.1449 11.3524 14.4543C11.3524 16.7638 13.2174 18.6385 15.515 18.6385C17.8124 18.6385 19.6774 16.7638 19.6774 14.4543C19.6774 12.1449 17.8124 10.2702 15.515 10.2702ZM14.9743 19.3721C12.2714 19.3721 10.082 17.1714 10.082 14.4543C10.082 11.7374 12.2714 9.53664 14.9743 9.53664C17.6773 9.53664 19.8666 11.7374 19.8666 14.4543C19.8666 17.1714 17.6502 19.3721 14.9743 19.3721ZM14.4338 8.83016C11.3524 8.83016 8.83864 11.357 8.83864 14.4543C8.83864 17.5517 11.3524 20.0785 14.4338 20.0785C17.5151 20.0785 20.0289 17.5517 20.0289 14.4543C20.0289 11.357 17.5151 8.83016 14.4338 8.83016ZM13.8121 20.8664C10.2982 20.8664 7.43311 17.9864 7.43311 14.4543C7.43311 10.9222 10.2982 8.04224 13.8121 8.04224C17.3259 8.04224 20.191 10.9222 20.191 14.4543C20.191 17.9864 17.3259 20.8664 13.8121 20.8664ZM13.3255 7.33585C9.43328 7.33585 6.24381 10.5419 6.24381 14.4543C6.24381 18.3668 9.43328 21.5728 13.3255 21.5728C17.2178 21.5728 20.4073 18.3668 20.4073 14.4543C20.4073 10.5419 17.2448 7.33585 13.3255 7.33585ZM14.0013 16.4378C12.9201 16.4378 12.0282 15.5411 12.0282 14.4543C12.0282 13.3675 12.9201 12.471 14.0013 12.471C15.0825 12.471 15.9744 13.3675 15.9744 14.4543C15.9744 15.5411 15.0825 16.4378 14.0013 16.4378ZM14.5148 11.7374C13.0282 11.7374 11.8119 12.96 11.8119 14.4543C11.8119 15.9487 13.0282 17.1714 14.5148 17.1714C16.0014 17.1714 17.2178 15.9487 17.2178 14.4543C17.2178 12.96 16.0014 11.7374 14.5148 11.7374ZM12.7579 22.3064C8.46024 22.3064 4.9464 18.7743 4.9464 14.4543C4.9464 10.1343 8.46024 6.60226 12.7579 6.60226C17.0556 6.60226 20.5694 10.1343 20.5694 14.4543C20.5965 18.7743 17.0826 22.3064 12.7579 22.3064ZM12.2984 5.89585C7.59529 5.89585 3.78413 9.7268 3.78413 14.4543C3.78413 19.1547 7.62231 23.0128 12.2984 23.0128C16.9745 23.0128 20.8127 19.1547 20.8127 14.4543C20.8127 9.754 16.9745 5.89585 12.2984 5.89585ZM11.7038 23.7736C6.59519 23.7736 2.43266 19.5894 2.43266 14.4543C2.43266 9.31928 6.59519 5.1351 11.7038 5.1351C16.8123 5.1351 20.9749 9.31928 20.9749 14.4543C20.9749 19.5894 16.8123 23.7736 11.7038 23.7736ZM11.3254 4.34717C5.81134 4.34717 1.29742 8.88456 1.29742 14.4272C1.29742 19.9698 5.81134 24.5072 11.3254 24.5072C16.8664 24.5072 21.3533 19.9698 21.3533 14.4272C21.3803 8.88456 16.8664 4.34717 11.3254 4.34717Z" fill="#96A0AA"/>
<path d="M42.8608 19.2H41.184V15.6928H37.0624V19.2H35.3856V10.7008H37.0624V14.1952H41.184V10.7008H42.8608V19.2ZM49.1876 10.7008L52.8868 19.2H51.1076L50.2756 17.3184H46.3972L45.5652 19.2H43.85L47.5492 10.7008H49.1876ZM48.3428 12.928L47.0628 15.8208H49.61L48.3428 12.928ZM61.2203 19.2H59.5435V12.1984H55.5499V19.2H53.8731V10.7008H61.2203V19.2ZM69.4192 12.9664H68.7664V16.7808H69.4192C69.9824 16.7808 70.4603 16.6229 70.8528 16.3072C71.2539 15.9829 71.4544 15.505 71.4544 14.8736C71.4544 14.2421 71.2539 13.7685 70.8528 13.4528C70.4603 13.1285 69.9824 12.9664 69.4192 12.9664ZM67.0896 16.7808V12.9664H66.4368C65.8736 12.9664 65.3915 13.1285 64.9904 13.4528C64.5979 13.7685 64.4016 14.2421 64.4016 14.8736C64.4016 15.505 64.5979 15.9829 64.9904 16.3072C65.3915 16.6229 65.8736 16.7808 66.4368 16.7808H67.0896ZM67.0896 11.4688V10.5088H68.7664V11.4688H69.4192C70.4944 11.4688 71.3819 11.7802 72.0816 12.4032C72.7813 13.0176 73.1312 13.841 73.1312 14.8736C73.1312 15.9061 72.7813 16.7338 72.0816 17.3568C71.3819 17.9712 70.4944 18.2784 69.4192 18.2784H68.7664V19.4048H67.0896V18.2784H66.4368C65.3616 18.2784 64.4741 17.9712 63.7744 17.3568C63.0747 16.7338 62.7248 15.9061 62.7248 14.8736C62.7248 13.841 63.0747 13.0176 63.7744 12.4032C64.4741 11.7802 65.3616 11.4688 66.4368 11.4688H67.0896Z" fill="#96A0AA"/>
</svg>
