<svg width="67" height="21" viewBox="0 0 67 21" fill="none" xmlns="http://www.w3.org/2000/svg">
<path fill-rule="evenodd" clip-rule="evenodd" d="M2.39286 0V0.493247H4.25397V5.65385H6.96104V0.493247H10.0065C11.4084 0.493247 12.3994 0.93717 13.0761 1.94833C13.4628 2.54022 13.8496 3.72402 13.9946 4.66119H14.5747L14.3088 0H2.39286ZM19.0433 13.5078L20.6601 11.2244L17.2125 6.20585H15.9524V5.80151H21.1118V6.20585H20.0419L22.4671 9.67843L23.537 8.10864C23.965 7.46645 24.1076 7.18103 24.1076 6.94318C24.1076 6.70533 23.9412 6.15828 22.8475 6.20585V5.80151H26.9608V6.20585H26.6041C25.7589 6.20585 24.997 6.95518 24.5907 7.48025L24.5118 7.58537L22.6811 10.1303L26.4377 15.5295H27.5076V15.9338H22.2531V15.5295H23.6321L20.8978 11.6526L19.3999 13.7218C18.9957 14.2927 18.972 14.6495 19.0433 14.8873C19.1384 15.1965 19.5664 15.5295 20.0894 15.5295H20.2797V15.9338H15.9524V15.5295H16.1426C16.4755 15.5295 16.951 15.4581 17.4978 15.1014C17.9734 14.7922 18.4727 14.3165 19.0433 13.5078ZM29.6 20.5957V6.20585H28.102V5.80151H30.4559C30.9239 5.80151 31.1445 5.80151 31.7137 5.71633L31.93 5.68259V7.10967C32.1988 6.55125 32.5754 6.22662 32.7473 6.08888L32.8555 6.00525C33.1715 5.77719 33.7031 5.53988 34.4503 5.53988C35.7342 5.53988 37.137 6.18207 38.0881 7.58537C38.7063 8.48919 39.0867 9.65465 39.0867 10.9152C39.0867 12.1758 38.7063 13.3889 37.7552 14.5305C36.8517 15.6008 35.8056 16.1955 34.4028 16.1955C33.9748 16.1955 33.3566 16.1241 32.9049 15.9101C32.5244 15.7198 32.1678 15.3868 31.93 15.0538V20.5957H33.4279V21H28.102V20.5957H29.6ZM36.0671 14.4354C36.3049 13.9121 36.4237 12.8656 36.4237 12.2472V9.08381C36.4237 8.84597 36.4 7.68051 35.972 6.9194C35.6629 6.37235 35.1398 5.968 34.2839 5.968C33.4279 5.968 32.8097 6.37235 32.358 7.0621C32.0014 7.60916 31.93 8.06107 31.93 8.51298V13.817C31.93 14.2689 32.2153 14.8635 32.5958 15.1965C32.9762 15.5295 33.6419 15.7673 34.0699 15.7673C34.8069 15.7673 35.6629 15.3392 36.0671 14.4354ZM49.144 13.1034L49.5482 13.3651C49.1678 13.9835 48.5496 14.7208 48.0741 15.1252C47.1231 15.9338 46.0769 16.1955 45.1496 16.1955C43.7706 16.1955 42.3202 15.6008 41.4167 14.5781C40.5846 13.6267 40.1328 12.1996 40.1328 10.9628C40.1328 9.55951 40.6321 8.22756 41.4405 7.25238C42.5105 5.99179 43.8419 5.53988 45.0307 5.53988C46.386 5.53988 47.6224 6.1345 48.407 7.15724C49.0727 8.0135 49.4293 9.20274 49.4531 10.3206H42.7958V11.938C42.7958 13.1272 42.9384 14.1262 43.4377 14.816C43.8657 15.3868 44.5314 15.7673 45.3398 15.7673C46.1007 15.7673 47.0279 15.3868 47.8363 14.6495C48.3292 14.1975 48.7865 13.6037 49.0399 13.251L49.144 13.1034ZM42.7958 9.91628H46.9804C47.0042 9.22652 46.9804 7.89457 46.7664 7.2286C46.4811 6.34856 45.8867 5.94422 44.9594 5.94422C44.0559 5.94422 43.4377 6.34856 43.0811 7.03832C42.8195 7.56159 42.7958 8.03728 42.7958 8.41784V9.91628ZM52.0447 15.5295V6.20585H50.5468V5.80151H52.9245C53.3524 5.80151 53.5878 5.80151 54.1679 5.71481L54.3748 5.68259V7.79943C54.5888 7.34752 54.9454 6.77669 55.2545 6.46748L55.2968 6.42374C55.6913 6.02643 56.4552 5.53988 57.4182 5.53988C58.0601 5.53988 58.4643 5.73016 58.7259 5.92043C59.1063 6.20585 59.2965 6.61019 59.2965 7.15724C59.2965 7.46645 59.2252 7.75186 58.9874 8.0135C58.7259 8.29891 58.4168 8.41784 58.1077 8.41784C57.3944 8.41784 56.8951 7.94214 56.8951 7.32374C56.8951 7.25238 56.8951 7.15724 56.9189 7.08589C56.9189 7.05021 56.9248 7.02048 56.9308 6.99075L56.9308 6.9907C56.9367 6.96099 56.9426 6.93127 56.9426 6.89561C56.9426 6.65776 56.7524 6.4437 56.372 6.4437C55.9916 6.4437 55.5636 6.70533 55.1832 7.18103C54.4224 8.15621 54.3748 9.20274 54.3748 9.65465V15.5295H55.8727V15.9338H50.5468V15.5295H52.0447ZM64.2182 5.80151V1.61538L61.8881 2.44785V5.80151H59.9385V6.20585H61.8881L61.8885 13.582C61.8948 14.332 61.9812 15.0528 62.4825 15.5771L62.5233 15.6212C62.7223 15.8263 63.2128 16.1955 64.0517 16.1955C64.6224 16.1955 65.2643 16.029 65.8112 15.7673C66.2851 15.5406 66.6341 15.296 66.8889 15.08L67 14.9824L66.7622 14.697C66.5793 14.9166 66.3965 15.0235 66.2027 15.1153L66.0252 15.1965C65.6749 15.3408 65.5032 15.3779 65.2624 15.3852L65.1455 15.3868C64.979 15.3868 64.6699 15.3868 64.4559 15.1252C64.2911 14.919 64.2334 14.4449 64.2209 14.1363L64.2182 14.0073V6.20585H66.2867V5.80151H64.2182ZM4.25397 15.6606V11.3077H6.96104V15.6606L10.4677 15.6603C10.9333 15.6547 12.5369 15.5534 13.5595 14.1069C13.943 13.5775 14.2634 12.7687 14.5205 11.4201L14.5747 11.1227H15.1548L14.6472 16.1538H2.39286V15.6606H4.25397ZM10.369 6.46154H0.797619V7.26923H10.369V6.46154ZM1.59524 8.07692H11.9643V8.88462H1.59524V8.07692ZM10.369 9.69231H0V10.5H10.369V9.69231Z" fill="#96A0AA"/>
</svg>
