<svg width="24" height="24" viewBox="0 0 24 24" fill="none" xmlns="http://www.w3.org/2000/svg">
<path fill-rule="evenodd" clip-rule="evenodd" d="M4 24H7L9 17H2L4 24Z" fill="#506478"/>
<path fill-rule="evenodd" clip-rule="evenodd" d="M11 17H0V12.5C0 9.46243 2.46243 7 5.5 7C8.53757 7 11 9.46243 11 12.5V17Z" fill="#506478" fill-opacity="0.3"/>
<path fill-rule="evenodd" clip-rule="evenodd" d="M24 17H13V12.5C13 9.46243 15.4624 7 18.5 7C21.5376 7 24 9.46243 24 12.5V17Z" fill="#506478" fill-opacity="0.3"/>
<path fill-rule="evenodd" clip-rule="evenodd" d="M16 24H21V17H16V24Z" fill="#506478"/>
<path fill-rule="evenodd" clip-rule="evenodd" d="M8 2.50008C8 1.11938 6.88066 0 5.5 0C4.11934 0 3 1.11938 3 2.50008C3 3.88062 4.11934 5 5.5 5C6.88066 5 8 3.88062 8 2.50008Z" fill="#506478" fill-opacity="0.6"/>
<path fill-rule="evenodd" clip-rule="evenodd" d="M21 2.50008C21 1.11938 19.8807 0 18.5 0C17.1193 0 16 1.11938 16 2.50008C16 3.88062 17.1193 5 18.5 5C19.8807 5 21 3.88062 21 2.50008Z" fill="#506478" fill-opacity="0.6"/>
</svg>
