<svg width="48" height="48" viewBox="0 0 48 48" fill="none" xmlns="http://www.w3.org/2000/svg">
<path d="M16.9428 24.4381C11.0792 26.9562 7 32.5128 7 38.9546V44H41V38.9546C41 32.5128 36.9208 26.9562 31.0572 24.4381C29.1471 26.0373 26.686 27 24 27C21.314 27 18.8529 26.0373 16.9428 24.4381Z" fill="#506478"/>
<path fill-rule="evenodd" clip-rule="evenodd" d="M24 4C17.9249 4 13 8.92487 13 15V16C13 22.0751 17.9249 27 24 27C30.0751 27 35 22.0751 35 16V15C35 8.92487 30.0751 4 24 4ZM24.0374 23C20.1444 23 17 19.8723 17 16H31C31 19.7979 27.9305 23 24.0374 23Z" fill="#506478" fill-opacity="0.6"/>
</svg>
