<svg width="101" height="29" viewBox="0 0 101 29" fill="none" xmlns="http://www.w3.org/2000/svg">
<g clip-path="url(#clip0)">
<path fill-rule="evenodd" clip-rule="evenodd" d="M20.7951 2.41329L21.7537 1.68271C21.8894 1.57896 21.8592 1.37578 21.704 1.36714L20.627 1.29797C20.5617 1.29364 20.5108 1.25042 20.4962 1.18557L20.2636 0.113478C20.2295 -0.0378259 20.0276 -0.0378259 19.9463 0.113478L19.3801 1.18125C19.3453 1.24609 19.2809 1.28932 19.2143 1.29364L18.1115 1.36281C17.9536 1.37146 17.8601 1.57464 17.9635 1.67839L18.6949 2.40464C18.7376 2.44787 18.7509 2.52136 18.7243 2.58621L18.275 3.69721C18.2137 3.85284 18.3548 3.9782 18.5002 3.89174L19.5154 3.27356C19.5792 3.23465 19.6492 3.23465 19.6967 3.27356L20.5234 3.89174C20.6417 3.9782 20.822 3.85284 20.8092 3.69721L20.7056 2.59053C20.7034 2.52569 20.7348 2.45652 20.7951 2.41329ZM14.6351 3.68225L15.5937 2.95167C15.7294 2.84792 15.6992 2.64474 15.544 2.6361L14.467 2.56693C14.4017 2.56261 14.3508 2.51938 14.3362 2.45453L14.1036 1.38244C14.0695 1.23114 13.8676 1.23114 13.7863 1.38244L13.2202 2.45021C13.1853 2.51506 13.1209 2.55828 13.0543 2.56261L11.9516 2.63178C11.7936 2.64042 11.7001 2.8436 11.8035 2.94735L12.5349 3.67361C12.5776 3.71684 12.5909 3.79033 12.5643 3.85517L12.115 4.96617C12.0537 5.1218 12.1948 5.24716 12.3402 5.16071L13.3554 4.54252C13.4192 4.50362 13.4892 4.50362 13.5367 4.54252L14.3634 5.16071C14.4817 5.24716 14.662 5.1218 14.6492 4.96617L14.5456 3.8595C14.5434 3.79465 14.5748 3.72548 14.6351 3.68225ZM27.9137 3.36271L26.9551 4.09329C26.8948 4.13652 26.8634 4.20569 26.8656 4.27053L26.9692 5.37721C26.982 5.53284 26.8017 5.6582 26.6834 5.57174L25.8567 4.95356C25.8092 4.91465 25.7392 4.91465 25.6754 4.95356L24.6602 5.57174C24.5148 5.6582 24.3737 5.53284 24.435 5.37721L24.8843 4.26621C24.9109 4.20136 24.8976 4.12787 24.8549 4.08464L24.1235 3.35839C24.0201 3.25464 24.1136 3.05146 24.2715 3.04281L25.3743 2.97364C25.4409 2.96932 25.5053 2.92609 25.5401 2.86125L26.1063 1.79348C26.1876 1.64217 26.3895 1.64217 26.4236 1.79348L26.6562 2.86557C26.6708 2.93042 26.7217 2.97364 26.787 2.97797L27.864 3.04713C28.0192 3.05578 28.0494 3.25896 27.9137 3.36271ZM30.8751 8.57329L31.8337 7.84271C31.9694 7.73896 31.9392 7.53578 31.784 7.52713L30.707 7.45797C30.6417 7.45364 30.5908 7.41041 30.5762 7.34557L30.3436 6.27348C30.3095 6.12217 30.1076 6.12217 30.0263 6.27348L29.4601 7.34125C29.4253 7.40609 29.3609 7.44932 29.2943 7.45364L28.1915 7.52281C28.0336 7.53146 27.9401 7.73464 28.0435 7.83839L28.7749 8.56464C28.8176 8.60787 28.8309 8.68136 28.8043 8.74621L28.355 9.85721C28.2937 10.0128 28.4348 10.1382 28.5802 10.0517L29.5954 9.43356C29.6592 9.39465 29.7292 9.39465 29.7767 9.43356L30.6034 10.0517C30.7217 10.1382 30.902 10.0128 30.8892 9.85721L30.7856 8.75053C30.7834 8.68569 30.8148 8.61652 30.8751 8.57329ZM32.3937 14.0027L31.4351 14.7333C31.3748 14.7765 31.3434 14.8457 31.3456 14.9105L31.4492 16.0172C31.462 16.1728 31.2817 16.2982 31.1634 16.2117L30.3367 15.5936C30.2892 15.5547 30.2192 15.5547 30.1554 15.5936L29.1402 16.2117C28.9948 16.2982 28.8537 16.1728 28.915 16.0172L29.3643 14.9062C29.3909 14.8414 29.3776 14.7679 29.3349 14.7246L28.6035 13.9984C28.5001 13.8946 28.5936 13.6915 28.7515 13.6828L29.8543 13.6136C29.9209 13.6093 29.9853 13.5661 30.0201 13.5012L30.5863 12.4335C30.6676 12.2822 30.8695 12.2822 30.9036 12.4335L31.1362 13.5056C31.1508 13.5704 31.2017 13.6136 31.267 13.618L32.344 13.6871C32.4992 13.6958 32.5294 13.899 32.3937 14.0027ZM29.1951 20.8933L30.1537 20.1627C30.2894 20.059 30.2592 19.8558 30.104 19.8471L29.027 19.778C28.9617 19.7736 28.9108 19.7304 28.8962 19.6656L28.6636 18.5935C28.6295 18.4422 28.4276 18.4422 28.3463 18.5935L27.7801 19.6612C27.7453 19.7261 27.6809 19.7693 27.6143 19.7736L26.5115 19.8428C26.3536 19.8515 26.2601 20.0546 26.3635 20.1584L27.0949 20.8846C27.1376 20.9279 27.1509 21.0014 27.1243 21.0662L26.675 22.1772C26.6137 22.3328 26.7548 22.4582 26.9002 22.3717L27.9154 21.7536C27.9792 21.7147 28.0492 21.7147 28.0967 21.7536L28.9234 22.3717C29.0417 22.4582 29.222 22.3328 29.2092 22.1772L29.1056 21.0705C29.1034 21.0057 29.1348 20.9365 29.1951 20.8933ZM25.1137 24.6427L24.1551 25.3733C24.0948 25.4165 24.0634 25.4857 24.0656 25.5505L24.1692 26.6572C24.182 26.8128 24.0017 26.9382 23.8834 26.8517L23.0567 26.2336C23.0092 26.1947 22.9392 26.1947 22.8754 26.2336L21.8602 26.8517C21.7148 26.9382 21.5737 26.8128 21.635 26.6572L22.0843 25.5462C22.1109 25.4814 22.0976 25.4079 22.0549 25.3646L21.3235 24.6384C21.2201 24.5346 21.3136 24.3315 21.4715 24.3228L22.5743 24.2536C22.6409 24.2493 22.7053 24.2061 22.7401 24.1412L23.3063 23.0735C23.3876 22.9222 23.5895 22.9222 23.6236 23.0735L23.8562 24.1456C23.8708 24.2104 23.9217 24.2536 23.987 24.258L25.064 24.3271C25.2192 24.3358 25.2494 24.539 25.1137 24.6427ZM17.9951 27.0533L18.9537 26.3227C19.0894 26.219 19.0592 26.0158 18.904 26.0071L17.827 25.938C17.7617 25.9336 17.7108 25.8904 17.6962 25.8256L17.4636 24.7535C17.4295 24.6022 17.2276 24.6022 17.1463 24.7535L16.5802 25.8212C16.5453 25.8861 16.4809 25.9293 16.4143 25.9336L15.3115 26.0028C15.1536 26.0115 15.0601 26.2146 15.1635 26.3184L15.8949 27.0446C15.9376 27.0879 15.9509 27.1614 15.9243 27.2262L15.475 28.3372C15.4137 28.4928 15.5548 28.6182 15.7002 28.5317L16.7154 27.9136C16.7792 27.8747 16.8492 27.8747 16.8967 27.9136L17.7234 28.5317C17.8417 28.6182 18.022 28.4928 18.0092 28.3372L17.9056 27.2305C17.9034 27.1657 17.9348 27.0965 17.9951 27.0533ZM12.7937 24.6427L11.8351 25.3733C11.7748 25.4165 11.7434 25.4857 11.7456 25.5505L11.8492 26.6572C11.862 26.8128 11.6817 26.9382 11.5634 26.8517L10.7367 26.2336C10.6892 26.1947 10.6192 26.1947 10.5554 26.2336L9.54017 26.8517C9.39483 26.9382 9.25367 26.8128 9.31502 26.6572L9.76432 25.5462C9.79091 25.4814 9.77765 25.4079 9.73494 25.3646L9.00345 24.6384C8.90013 24.5346 8.99362 24.3315 9.15155 24.3228L10.2543 24.2536C10.3209 24.2493 10.3853 24.2061 10.4202 24.1412L10.9863 23.0735C11.0676 22.9222 11.2695 22.9222 11.3036 23.0735L11.5362 24.1456C11.5508 24.2104 11.6017 24.2536 11.667 24.258L12.744 24.3271C12.8992 24.3358 12.9294 24.539 12.7937 24.6427Z" fill="#96A0AA"/>
<path d="M50.1071 2.4312C50.2086 2.4312 50.2975 2.45976 50.3737 2.51688C50.4498 2.574 50.5038 2.65016 50.5355 2.74536L52.5252 9H51.3066L50.7449 7.12456H48.2983L47.7461 9H46.5276L48.5173 2.74536C48.5426 2.65016 48.5934 2.574 48.6696 2.51688C48.7521 2.45976 48.8441 2.4312 48.9457 2.4312H50.1071ZM49.2408 3.93536L48.5744 6.1916H50.4689L49.8025 3.93536C49.7771 3.84016 49.7517 3.74179 49.7263 3.64024C49.7009 3.53235 49.6787 3.4308 49.6597 3.3356H49.3931C49.3741 3.4308 49.3518 3.53235 49.3265 3.64024C49.3011 3.74179 49.2725 3.84016 49.2408 3.93536ZM54.9018 4.21144C55.2255 4.21144 55.5809 4.22731 55.9681 4.25904C56.3616 4.28443 56.7011 4.32251 56.9867 4.37328L56.9106 5.12536C56.6123 5.11901 56.3108 5.11267 56.0062 5.10632C55.7015 5.09363 55.4032 5.08728 55.1113 5.08728C54.8447 5.08728 54.6384 5.09363 54.4925 5.10632C54.3465 5.11901 54.2418 5.15709 54.1783 5.22056C54.1212 5.28403 54.0926 5.39192 54.0926 5.54424C54.0926 5.73464 54.1434 5.8584 54.245 5.91552C54.3465 5.97264 54.5115 6.02976 54.74 6.08688L56.0157 6.382C56.3965 6.4772 56.6789 6.62317 56.863 6.81992C57.047 7.01032 57.139 7.30544 57.139 7.70528C57.139 8.09243 57.066 8.38755 56.9201 8.59064C56.7741 8.78739 56.5488 8.92384 56.2442 9C55.9395 9.06981 55.5492 9.10472 55.0732 9.10472C54.8828 9.10472 54.6067 9.0952 54.245 9.07616C53.8895 9.06347 53.496 9.02221 53.0645 8.9524L53.1406 8.20032C53.3374 8.20667 53.5786 8.21301 53.8642 8.21936C54.1561 8.22571 54.4576 8.22571 54.7686 8.21936C55.0986 8.21936 55.3556 8.20984 55.5397 8.1908C55.7237 8.16541 55.8507 8.11781 55.9205 8.048C55.9903 7.97819 56.0252 7.87029 56.0252 7.72432C56.0252 7.54661 55.9649 7.4292 55.8443 7.37208C55.7301 7.30861 55.5587 7.24832 55.3302 7.1912L54.0831 6.88656C53.6642 6.77867 53.3723 6.62 53.2073 6.41056C53.0486 6.19477 52.9693 5.89648 52.9693 5.51568C52.9693 5.00795 53.1184 4.66205 53.4167 4.478C53.715 4.29395 54.21 4.20509 54.9018 4.21144ZM59.8664 4.21144C60.19 4.21144 60.5455 4.22731 60.9326 4.25904C61.3261 4.28443 61.6656 4.32251 61.9512 4.37328L61.8751 5.12536C61.5768 5.11901 61.2753 5.11267 60.9707 5.10632C60.666 5.09363 60.3678 5.08728 60.0758 5.08728C59.8092 5.08728 59.603 5.09363 59.457 5.10632C59.311 5.11901 59.2063 5.15709 59.1428 5.22056C59.0857 5.28403 59.0572 5.39192 59.0572 5.54424C59.0572 5.73464 59.1079 5.8584 59.2095 5.91552C59.311 5.97264 59.476 6.02976 59.7045 6.08688L60.9802 6.382C61.361 6.4772 61.6434 6.62317 61.8275 6.81992C62.0115 7.01032 62.1036 7.30544 62.1036 7.70528C62.1036 8.09243 62.0306 8.38755 61.8846 8.59064C61.7386 8.78739 61.5133 8.92384 61.2087 9C60.904 9.06981 60.5137 9.10472 60.0377 9.10472C59.8473 9.10472 59.5712 9.0952 59.2095 9.07616C58.8541 9.06347 58.4606 9.02221 58.029 8.9524L58.1052 8.20032C58.3019 8.20667 58.5431 8.21301 58.8287 8.21936C59.1206 8.22571 59.4221 8.22571 59.7331 8.21936C60.0631 8.21936 60.3202 8.20984 60.5042 8.1908C60.6883 8.16541 60.8152 8.11781 60.885 8.048C60.9548 7.97819 60.9897 7.87029 60.9897 7.72432C60.9897 7.54661 60.9294 7.4292 60.8088 7.37208C60.6946 7.30861 60.5232 7.24832 60.2948 7.1912L59.0476 6.88656C58.6288 6.77867 58.3368 6.62 58.1718 6.41056C58.0131 6.19477 57.9338 5.89648 57.9338 5.51568C57.9338 5.00795 58.083 4.66205 58.3812 4.478C58.6795 4.29395 59.1746 4.20509 59.8664 4.21144ZM65.2593 4.21144C65.8305 4.21144 66.2843 4.29077 66.6207 4.44944C66.957 4.60811 67.2014 4.86832 67.3537 5.23008C67.506 5.59184 67.5822 6.07101 67.5822 6.6676C67.5822 7.26419 67.506 7.74336 67.3537 8.10512C67.2014 8.46688 66.957 8.72709 66.6207 8.88576C66.2843 9.04443 65.8305 9.12376 65.2593 9.12376C64.6944 9.12376 64.2407 9.04443 63.8979 8.88576C63.5616 8.72709 63.3172 8.46688 63.1649 8.10512C63.0189 7.74336 62.9459 7.26419 62.9459 6.6676C62.9459 6.07101 63.0189 5.59184 63.1649 5.23008C63.3172 4.86832 63.5616 4.60811 63.8979 4.44944C64.2407 4.29077 64.6944 4.21144 65.2593 4.21144ZM65.2593 5.08728C64.98 5.08728 64.7579 5.13488 64.5929 5.23008C64.4342 5.31893 64.32 5.4776 64.2502 5.70608C64.1804 5.93456 64.1455 6.25507 64.1455 6.6676C64.1455 7.08013 64.1804 7.40064 64.2502 7.62912C64.32 7.8576 64.4342 8.01627 64.5929 8.10512C64.7579 8.19397 64.98 8.2384 65.2593 8.2384C65.5449 8.2384 65.767 8.19397 65.9257 8.10512C66.0907 8.01627 66.2081 7.8576 66.2779 7.62912C66.3477 7.40064 66.3827 7.08013 66.3827 6.6676C66.3827 6.25507 66.3477 5.93456 66.2779 5.70608C66.2081 5.4776 66.0907 5.31893 65.9257 5.23008C65.767 5.13488 65.5449 5.08728 65.2593 5.08728ZM70.7626 4.21144C70.9911 4.21144 71.2608 4.23048 71.5718 4.26856C71.8828 4.30029 72.1589 4.36693 72.4 4.46848L72.2668 5.192C72.0319 5.17931 71.7971 5.16979 71.5623 5.16344C71.3338 5.15709 71.1339 5.15392 70.9625 5.15392C70.6388 5.15392 70.3818 5.19835 70.1914 5.2872C70.0073 5.37605 69.8741 5.52837 69.7916 5.74416C69.7091 5.95995 69.6678 6.26459 69.6678 6.65808C69.6678 7.05157 69.7091 7.35939 69.7916 7.58152C69.8741 7.79731 70.0073 7.94963 70.1914 8.03848C70.3818 8.12733 70.6388 8.17176 70.9625 8.17176C71.1085 8.17176 71.3148 8.16541 71.5813 8.15272C71.8542 8.14003 72.1176 8.11781 72.3715 8.08608L72.4857 8.82864C72.2382 8.93019 71.9621 9.00317 71.6575 9.0476C71.3528 9.09203 71.0514 9.11424 70.7531 9.11424C70.1946 9.11424 69.7471 9.03491 69.4108 8.87624C69.0744 8.71757 68.83 8.46053 68.6777 8.10512C68.5317 7.74336 68.4588 7.26101 68.4588 6.65808C68.4588 6.05515 68.5317 5.57597 68.6777 5.22056C68.83 4.8588 69.0744 4.60176 69.4108 4.44944C69.7535 4.29077 70.2041 4.21144 70.7626 4.21144ZM74.2945 2.29792C74.523 2.29792 74.6372 2.41216 74.6372 2.64064V3.17376C74.6372 3.40224 74.523 3.51648 74.2945 3.51648H73.7804C73.552 3.51648 73.4377 3.40224 73.4377 3.17376V2.64064C73.4377 2.41216 73.552 2.29792 73.7804 2.29792H74.2945ZM74.6087 4.32568V9H73.4663V4.32568H74.6087ZM78.2898 4.21144C78.8483 4.21144 79.2767 4.32885 79.575 4.56368C79.8733 4.79216 80.0224 5.21421 80.0224 5.82984V9H79.1085L78.9848 8.2384C78.8705 8.36533 78.7245 8.49544 78.5468 8.62872C78.3691 8.762 78.1629 8.87307 77.928 8.96192C77.6996 9.05077 77.4425 9.0952 77.1569 9.0952C76.7317 9.0952 76.3794 8.98413 76.1002 8.762C75.8273 8.53987 75.6908 8.21619 75.6908 7.79096V7.29592C75.6908 6.92781 75.8114 6.64221 76.0526 6.43912C76.3001 6.22968 76.6365 6.12496 77.0617 6.12496H78.861V5.82032C78.861 5.5728 78.8039 5.39509 78.6896 5.2872C78.5754 5.17296 78.3564 5.11584 78.0328 5.11584C77.7916 5.11584 77.4869 5.12536 77.1188 5.1444C76.7571 5.16344 76.3921 5.18883 76.024 5.22056L75.9193 4.4304C76.1414 4.39232 76.3921 4.35741 76.6714 4.32568C76.9506 4.2876 77.2299 4.25904 77.5092 4.24C77.7948 4.22096 78.055 4.21144 78.2898 4.21144ZM76.8428 7.63864C76.8428 8.01944 77.0522 8.20984 77.4711 8.20984C77.6742 8.21619 77.8995 8.17176 78.147 8.07656C78.4009 7.98136 78.6389 7.84491 78.861 7.6672V6.83896H77.3759C77.1791 6.84531 77.0395 6.89608 76.957 6.99128C76.8808 7.08648 76.8428 7.21659 76.8428 7.3816V7.63864ZM84.2069 4.32568V5.12536H82.817V7.59104C82.817 7.78779 82.8583 7.92741 82.9408 8.00992C83.0296 8.09243 83.1788 8.13368 83.3882 8.13368H84.0356L84.1593 8.94288C84.0514 8.97461 83.9213 9.00317 83.769 9.02856C83.6167 9.05395 83.4644 9.06981 83.312 9.07616C83.1661 9.08885 83.0455 9.0952 82.9503 9.0952C82.5377 9.0952 82.2204 8.98731 81.9983 8.77152C81.7761 8.54939 81.6651 8.23205 81.6651 7.81952V5.12536H80.8368V4.37328L81.6651 4.3352V2.99288H82.817V4.32568H84.2069ZM85.9342 2.29792C86.1627 2.29792 86.2769 2.41216 86.2769 2.64064V3.17376C86.2769 3.40224 86.1627 3.51648 85.9342 3.51648H85.4201C85.1916 3.51648 85.0774 3.40224 85.0774 3.17376V2.64064C85.0774 2.41216 85.1916 2.29792 85.4201 2.29792H85.9342ZM86.2484 4.32568V9H85.106V4.32568H86.2484ZM89.6915 4.21144C90.2627 4.21144 90.7165 4.29077 91.0528 4.44944C91.3892 4.60811 91.6336 4.86832 91.7859 5.23008C91.9382 5.59184 92.0144 6.07101 92.0144 6.6676C92.0144 7.26419 91.9382 7.74336 91.7859 8.10512C91.6336 8.46688 91.3892 8.72709 91.0528 8.88576C90.7165 9.04443 90.2627 9.12376 89.6915 9.12376C89.1266 9.12376 88.6728 9.04443 88.3301 8.88576C87.9937 8.72709 87.7494 8.46688 87.5971 8.10512C87.4511 7.74336 87.3781 7.26419 87.3781 6.6676C87.3781 6.07101 87.4511 5.59184 87.5971 5.23008C87.7494 4.86832 87.9937 4.60811 88.3301 4.44944C88.6728 4.29077 89.1266 4.21144 89.6915 4.21144ZM89.6915 5.08728C89.4122 5.08728 89.1901 5.13488 89.0251 5.23008C88.8664 5.31893 88.7522 5.4776 88.6824 5.70608C88.6125 5.93456 88.5776 6.25507 88.5776 6.6676C88.5776 7.08013 88.6125 7.40064 88.6824 7.62912C88.7522 7.8576 88.8664 8.01627 89.0251 8.10512C89.1901 8.19397 89.4122 8.2384 89.6915 8.2384C89.9771 8.2384 90.1992 8.19397 90.3579 8.10512C90.5229 8.01627 90.6403 7.8576 90.7101 7.62912C90.7799 7.40064 90.8148 7.08013 90.8148 6.6676C90.8148 6.25507 90.7799 5.93456 90.7101 5.70608C90.6403 5.4776 90.5229 5.31893 90.3579 5.23008C90.1992 5.13488 89.9771 5.08728 89.6915 5.08728ZM94.0429 4.32568L94.1381 5.0492C94.4744 4.77629 94.814 4.57003 95.1567 4.4304C95.4994 4.28443 95.839 4.21144 96.1753 4.21144C97.0448 4.21144 97.4796 4.63984 97.4796 5.49664V9H96.3277V5.84888C96.3277 5.59501 96.2832 5.42048 96.1944 5.32528C96.1055 5.23008 95.9564 5.18248 95.7469 5.18248C95.5248 5.18248 95.2995 5.23008 95.071 5.32528C94.8425 5.41413 94.5696 5.54741 94.2523 5.72512V9H93.1004V4.32568H94.0429ZM49.2408 13.2114C49.812 13.2114 50.2658 13.2908 50.6021 13.4494C50.9385 13.6081 51.1829 13.8683 51.3352 14.2301C51.4875 14.5918 51.5637 15.071 51.5637 15.6676C51.5637 16.2642 51.4875 16.7434 51.3352 17.1051C51.1829 17.4669 50.9385 17.7271 50.6021 17.8858C50.2658 18.0444 49.812 18.1238 49.2408 18.1238C48.6759 18.1238 48.2221 18.0444 47.8794 17.8858C47.543 17.7271 47.2987 17.4669 47.1464 17.1051C47.0004 16.7434 46.9274 16.2642 46.9274 15.6676C46.9274 15.071 47.0004 14.5918 47.1464 14.2301C47.2987 13.8683 47.543 13.6081 47.8794 13.4494C48.2221 13.2908 48.6759 13.2114 49.2408 13.2114ZM49.2408 14.0873C48.9615 14.0873 48.7394 14.1349 48.5744 14.2301C48.4157 14.3189 48.3015 14.4776 48.2317 14.7061C48.1618 14.9346 48.1269 15.2551 48.1269 15.6676C48.1269 16.0801 48.1618 16.4006 48.2317 16.6291C48.3015 16.8576 48.4157 17.0163 48.5744 17.1051C48.7394 17.194 48.9615 17.2384 49.2408 17.2384C49.5264 17.2384 49.7485 17.194 49.9072 17.1051C50.0722 17.0163 50.1896 16.8576 50.2594 16.6291C50.3292 16.4006 50.3641 16.0801 50.3641 15.6676C50.3641 15.2551 50.3292 14.9346 50.2594 14.7061C50.1896 14.4776 50.0722 14.3189 49.9072 14.2301C49.7485 14.1349 49.5264 14.0873 49.2408 14.0873ZM55.5633 13.3257V14.1254H54.1733V18H53.0214V14.1254H52.1932V13.3733L53.0214 13.3257V12.5736C53.0214 12.1357 53.1293 11.7898 53.3451 11.5359C53.5672 11.2821 53.948 11.1551 54.4875 11.1551C54.5954 11.1551 54.735 11.1583 54.9064 11.1646C55.0841 11.171 55.265 11.1805 55.449 11.1932C55.6331 11.2059 55.7917 11.2218 55.925 11.2408L55.8203 12.0119H54.8969C54.6303 12.0119 54.4431 12.0659 54.3352 12.1738C54.2273 12.2817 54.1733 12.4625 54.1733 12.7164V13.3257H55.5633ZM59.6733 11.4122C60.1683 11.4122 60.6761 11.4153 61.1965 11.4217C61.7233 11.428 62.212 11.4502 62.6626 11.4883L62.6054 12.3737H60.035C59.686 12.3737 59.5114 12.5577 59.5114 12.9258V14.1254H62.2437V15.0012H59.5114V16.5054C59.5114 16.8735 59.686 17.0575 60.035 17.0575H62.6054L62.6626 17.9429C62.212 17.981 61.7233 18.0032 61.1965 18.0095C60.6761 18.0159 60.1683 18.019 59.6733 18.019C59.2671 18.019 58.9402 17.908 58.6927 17.6858C58.4516 17.4574 58.3278 17.1527 58.3214 16.7719V12.6593C58.3278 12.2785 58.4516 11.977 58.6927 11.7549C58.9402 11.5264 59.2671 11.4122 59.6733 11.4122ZM64.8549 13.3257V16.4863C64.8486 16.7275 64.893 16.8989 64.9882 17.0004C65.0897 17.0956 65.2516 17.1432 65.4737 17.1432C65.6832 17.1432 65.8894 17.1019 66.0925 17.0194C66.302 16.9369 66.5495 16.8132 66.8351 16.6482V13.3257H67.987V18H67.0731L66.9779 17.3241C66.6415 17.5906 66.3115 17.7906 65.9878 17.9238C65.6705 18.0571 65.3436 18.1238 65.0072 18.1238C64.1377 18.1238 63.703 17.6954 63.703 16.8386V13.3257H64.8549ZM70.1767 13.3257L70.2909 14.0492C70.6146 13.7763 70.9414 13.57 71.2715 13.4304C71.6015 13.2844 71.922 13.2114 72.233 13.2114H72.4615L72.3472 14.2777H72.014C71.7856 14.2777 71.5507 14.3158 71.3096 14.3919C71.0684 14.4681 70.7764 14.576 70.4337 14.7156V18H69.2818V13.3257H70.1767ZM75.2534 13.2114C75.8246 13.2114 76.2784 13.2908 76.6148 13.4494C76.9512 13.6081 77.1955 13.8683 77.3478 14.2301C77.5002 14.5918 77.5763 15.071 77.5763 15.6676C77.5763 16.2642 77.5002 16.7434 77.3478 17.1051C77.1955 17.4669 76.9512 17.7271 76.6148 17.8858C76.2784 18.0444 75.8246 18.1238 75.2534 18.1238C74.6886 18.1238 74.2348 18.0444 73.8921 17.8858C73.5557 17.7271 73.3114 17.4669 73.159 17.1051C73.0131 16.7434 72.9401 16.2642 72.9401 15.6676C72.9401 15.071 73.0131 14.5918 73.159 14.2301C73.3114 13.8683 73.5557 13.6081 73.8921 13.4494C74.2348 13.2908 74.6886 13.2114 75.2534 13.2114ZM75.2534 14.0873C74.9742 14.0873 74.752 14.1349 74.587 14.2301C74.4284 14.3189 74.3141 14.4776 74.2443 14.7061C74.1745 14.9346 74.1396 15.2551 74.1396 15.6676C74.1396 16.0801 74.1745 16.4006 74.2443 16.6291C74.3141 16.8576 74.4284 17.0163 74.587 17.1051C74.752 17.194 74.9742 17.2384 75.2534 17.2384C75.539 17.2384 75.7612 17.194 75.9198 17.1051C76.0848 17.0163 76.2023 16.8576 76.2721 16.6291C76.3419 16.4006 76.3768 16.0801 76.3768 15.6676C76.3768 15.2551 76.3419 14.9346 76.2721 14.7061C76.2023 14.4776 76.0848 14.3189 75.9198 14.2301C75.7612 14.1349 75.539 14.0873 75.2534 14.0873ZM79.5953 13.3257L79.6905 14.0492C79.9063 13.8017 80.1855 13.6018 80.5283 13.4494C80.871 13.2908 81.2169 13.2114 81.5659 13.2114C82.1498 13.2114 82.5655 13.4241 82.8131 13.8493C83.0669 14.2745 83.1939 14.8901 83.1939 15.6962C83.1939 16.3118 83.1272 16.7973 82.9939 17.1527C82.867 17.5018 82.6734 17.7525 82.4132 17.9048C82.153 18.0508 81.823 18.1238 81.4231 18.1238C81.1312 18.1238 80.8456 18.0857 80.5663 18.0095C80.2871 17.9334 80.0269 17.8128 79.7857 17.6478C79.7984 17.8064 79.8047 17.9683 79.8047 18.1333C79.8111 18.2983 79.8143 18.4633 79.8143 18.6283V19.8564H78.6623V13.3257H79.5953ZM81.128 14.1254C80.8995 14.1254 80.6838 14.173 80.4807 14.2682C80.2839 14.3634 80.0618 14.4998 79.8143 14.6775V17.0004C80.0427 17.0702 80.249 17.1273 80.4331 17.1718C80.6235 17.2162 80.8297 17.2384 81.0519 17.2384C81.2803 17.2384 81.4644 17.2003 81.604 17.1242C81.7436 17.0417 81.8452 16.8893 81.9087 16.6672C81.9721 16.4451 82.0039 16.1246 82.0039 15.7057C82.0039 15.2931 81.9753 14.9726 81.9182 14.7442C81.8611 14.5157 81.7659 14.357 81.6326 14.2682C81.5056 14.173 81.3375 14.1254 81.128 14.1254ZM86.3811 13.2114C87.1364 13.2114 87.679 13.3447 88.009 13.6113C88.3391 13.8715 88.5073 14.2586 88.5136 14.7727C88.5136 15.1979 88.4121 15.5216 88.209 15.7438C88.0059 15.9595 87.6663 16.0674 87.1903 16.0674H85.3149C85.353 16.5181 85.4704 16.8163 85.6671 16.9623C85.8639 17.1083 86.1685 17.1813 86.581 17.1813C86.8159 17.1813 87.0856 17.1718 87.3902 17.1527C87.7012 17.1337 87.9995 17.1083 88.2851 17.0766L88.3994 17.8096C88.1455 17.9175 87.8345 17.9937 87.4664 18.0381C87.0983 18.0889 86.7588 18.1142 86.4478 18.1142C85.591 18.1142 84.9817 17.9238 84.6199 17.543C84.2645 17.1559 84.0868 16.5307 84.0868 15.6676C84.0868 15.052 84.163 14.5665 84.3153 14.211C84.474 13.8493 84.7215 13.5922 85.0578 13.4399C85.3942 13.2876 85.8353 13.2114 86.3811 13.2114ZM86.4287 14.0682C86.1495 14.0682 85.9305 14.1031 85.7718 14.173C85.6132 14.2428 85.4958 14.3729 85.4196 14.5633C85.3434 14.7473 85.3022 15.0107 85.2958 15.3534H86.8762C87.092 15.3534 87.2284 15.2963 87.2855 15.1821C87.349 15.0678 87.3807 14.9282 87.3807 14.7632C87.3807 14.5093 87.3077 14.3316 87.1618 14.2301C87.0158 14.1222 86.7714 14.0682 86.4287 14.0682ZM91.9004 13.2114C92.4589 13.2114 92.8873 13.3289 93.1856 13.5637C93.4839 13.7922 93.6331 14.2142 93.6331 14.8298V18H92.7191L92.5954 17.2384C92.4811 17.3653 92.3352 17.4954 92.1575 17.6287C91.9798 17.762 91.7735 17.8731 91.5387 17.9619C91.3102 18.0508 91.0531 18.0952 90.7675 18.0952C90.3423 18.0952 89.9901 17.9841 89.7108 17.762C89.4379 17.5399 89.3015 17.2162 89.3015 16.791V16.2959C89.3015 15.9278 89.422 15.6422 89.6632 15.4391C89.9107 15.2297 90.2471 15.125 90.6723 15.125H92.4716V14.8203C92.4716 14.5728 92.4145 14.3951 92.3003 14.2872C92.186 14.173 91.9671 14.1158 91.6434 14.1158C91.4022 14.1158 91.0976 14.1254 90.7295 14.1444C90.3677 14.1634 90.0028 14.1888 89.6347 14.2206L89.5299 13.4304C89.7521 13.3923 90.0028 13.3574 90.282 13.3257C90.5613 13.2876 90.8405 13.259 91.1198 13.24C91.4054 13.221 91.6656 13.2114 91.9004 13.2114ZM90.4534 16.6386C90.4534 17.0194 90.6628 17.2098 91.0817 17.2098C91.2848 17.2162 91.5101 17.1718 91.7576 17.0766C92.0115 16.9814 92.2495 16.8449 92.4716 16.6672V15.839H90.9865C90.7898 15.8453 90.6501 15.8961 90.5676 15.9913C90.4915 16.0865 90.4534 16.2166 90.4534 16.3816V16.6386ZM95.8279 13.3257L95.9231 14.0492C96.2594 13.7763 96.599 13.57 96.9417 13.4304C97.2844 13.2844 97.624 13.2114 97.9603 13.2114C98.8298 13.2114 99.2646 13.6398 99.2646 14.4966V18H98.1127V14.8489C98.1127 14.595 98.0682 14.4205 97.9794 14.3253C97.8905 14.2301 97.7414 14.1825 97.5319 14.1825C97.3098 14.1825 97.0845 14.2301 96.856 14.3253C96.6275 14.4141 96.3546 14.5474 96.0373 14.7251V18H94.8854V13.3257H95.8279ZM49.5454 21.355C50.1039 21.355 50.5482 21.4058 50.8782 21.5074C51.2146 21.6026 51.4558 21.7739 51.6017 22.0214C51.7477 22.269 51.8207 22.618 51.8207 23.0686C51.8207 23.5383 51.7318 23.8969 51.5541 24.1444C51.3764 24.3919 51.0845 24.5347 50.6783 24.5728V24.6109C51.1797 24.6553 51.5288 24.8267 51.7255 25.125C51.9286 25.4233 52.0301 25.8358 52.0301 26.3626C52.0301 26.8132 51.954 27.1622 51.8017 27.4098C51.6557 27.6573 51.4209 27.8318 51.0972 27.9334C50.7798 28.0286 50.3641 28.0762 49.8501 28.0762C49.4439 28.0762 49.0916 28.073 48.7933 28.0666C48.5014 28.0666 48.2317 28.0603 47.9841 28.0476C47.7366 28.0349 47.4796 28.019 47.213 28V21.4312C47.4478 21.4058 47.6763 21.3899 47.8985 21.3836C48.1269 21.3709 48.3713 21.3646 48.6315 21.3646C48.8917 21.3582 49.1964 21.355 49.5454 21.355ZM49.4883 22.269C49.2725 22.269 49.0726 22.269 48.8885 22.269C48.7045 22.269 48.5331 22.269 48.3745 22.269V24.192H49.593C49.9992 24.192 50.2816 24.1285 50.4403 24.0016C50.599 23.8683 50.6783 23.6081 50.6783 23.221C50.6783 22.9607 50.6402 22.764 50.5641 22.6307C50.4942 22.4911 50.3705 22.3959 50.1928 22.3451C50.0214 22.2943 49.7866 22.269 49.4883 22.269ZM49.6025 25.0012H48.3745V27.1622C48.7426 27.1622 49.1678 27.1622 49.6501 27.1622C49.9484 27.1622 50.1833 27.1369 50.3546 27.0861C50.526 27.029 50.6466 26.9274 50.7164 26.7814C50.7925 26.6355 50.8306 26.4229 50.8306 26.1436C50.8306 25.839 50.7925 25.6073 50.7164 25.4486C50.6402 25.2836 50.5133 25.1694 50.3356 25.1059C50.1579 25.0361 49.9135 25.0012 49.6025 25.0012ZM54.2658 23.3257V26.4863C54.2594 26.7275 54.3039 26.8989 54.3991 27.0004C54.5006 27.0956 54.6624 27.1432 54.8846 27.1432C55.094 27.1432 55.3003 27.1019 55.5034 27.0194C55.7128 26.9369 55.9603 26.8132 56.2459 26.6482V23.3257H57.3979V28H56.4839L56.3887 27.3241C56.0524 27.5906 55.7223 27.7906 55.3987 27.9238C55.0813 28.0571 54.7545 28.1238 54.4181 28.1238C53.5486 28.1238 53.1139 27.6954 53.1139 26.8386V23.3257H54.2658ZM60.3777 23.2114C60.7014 23.2114 61.0568 23.2273 61.4439 23.259C61.8374 23.2844 62.177 23.3225 62.4626 23.3733L62.3864 24.1254C62.0881 24.119 61.7867 24.1127 61.482 24.1063C61.1774 24.0936 60.8791 24.0873 60.5871 24.0873C60.3206 24.0873 60.1143 24.0936 59.9683 24.1063C59.8224 24.119 59.7176 24.1571 59.6542 24.2206C59.5971 24.284 59.5685 24.3919 59.5685 24.5442C59.5685 24.7346 59.6193 24.8584 59.7208 24.9155C59.8224 24.9726 59.9874 25.0298 60.2159 25.0869L61.4915 25.382C61.8723 25.4772 62.1548 25.6232 62.3388 25.8199C62.5229 26.0103 62.6149 26.3054 62.6149 26.7053C62.6149 27.0924 62.5419 27.3875 62.3959 27.5906C62.25 27.7874 62.0247 27.9238 61.72 28C61.4154 28.0698 61.0251 28.1047 60.5491 28.1047C60.3587 28.1047 60.0826 28.0952 59.7208 28.0762C59.3654 28.0635 58.9719 28.0222 58.5403 27.9524L58.6165 27.2003C58.8132 27.2067 59.0544 27.213 59.34 27.2194C59.632 27.2257 59.9334 27.2257 60.2444 27.2194C60.5744 27.2194 60.8315 27.2098 61.0155 27.1908C61.1996 27.1654 61.3265 27.1178 61.3963 27.048C61.4661 26.9782 61.5011 26.8703 61.5011 26.7243C61.5011 26.5466 61.4408 26.4292 61.3202 26.3721C61.2059 26.3086 61.0346 26.2483 60.8061 26.1912L59.559 25.8866C59.1401 25.7787 58.8481 25.62 58.6831 25.4106C58.5245 25.1948 58.4451 24.8965 58.4451 24.5157C58.4451 24.0079 58.5943 23.6621 58.8926 23.478C59.1909 23.2939 59.6859 23.2051 60.3777 23.2114ZM64.5235 21.2979C64.752 21.2979 64.8662 21.4122 64.8662 21.6406V22.1738C64.8662 22.4022 64.752 22.5165 64.5235 22.5165H64.0094C63.7809 22.5165 63.6667 22.4022 63.6667 22.1738V21.6406C63.6667 21.4122 63.7809 21.2979 64.0094 21.2979H64.5235ZM64.8377 23.3257V28H63.6953V23.3257H64.8377ZM67.1098 23.3257L67.205 24.0492C67.5414 23.7763 67.8809 23.57 68.2237 23.4304C68.5664 23.2844 68.9059 23.2114 69.2423 23.2114C70.1118 23.2114 70.5465 23.6398 70.5465 24.4966V28H69.3946V24.8489C69.3946 24.595 69.3502 24.4205 69.2613 24.3253C69.1725 24.2301 69.0233 24.1825 68.8139 24.1825C68.5918 24.1825 68.3665 24.2301 68.138 24.3253C67.9095 24.4141 67.6366 24.5474 67.3193 24.7251V28H66.1673V23.3257H67.1098ZM73.8954 23.2114C74.6507 23.2114 75.1933 23.3447 75.5233 23.6113C75.8534 23.8715 76.0216 24.2586 76.0279 24.7727C76.0279 25.1979 75.9264 25.5216 75.7233 25.7438C75.5202 25.9595 75.1806 26.0674 74.7046 26.0674H72.8292C72.8673 26.5181 72.9847 26.8163 73.1814 26.9623C73.3782 27.1083 73.6828 27.1813 74.0953 27.1813C74.3302 27.1813 74.5999 27.1718 74.9045 27.1527C75.2155 27.1337 75.5138 27.1083 75.7994 27.0766L75.9137 27.8096C75.6598 27.9175 75.3488 27.9937 74.9807 28.0381C74.6126 28.0889 74.273 28.1142 73.9621 28.1142C73.1053 28.1142 72.496 27.9238 72.1342 27.543C71.7788 27.1559 71.6011 26.5307 71.6011 25.6676C71.6011 25.052 71.6773 24.5665 71.8296 24.211C71.9882 23.8493 72.2358 23.5922 72.5721 23.4399C72.9085 23.2876 73.3496 23.2114 73.8954 23.2114ZM73.943 24.0682C73.6638 24.0682 73.4448 24.1031 73.2861 24.173C73.1275 24.2428 73.0101 24.3729 72.9339 24.5633C72.8577 24.7473 72.8165 25.0107 72.8101 25.3534H74.3905C74.6062 25.3534 74.7427 25.2963 74.7998 25.1821C74.8633 25.0678 74.895 24.9282 74.895 24.7632C74.895 24.5093 74.822 24.3316 74.6761 24.2301C74.5301 24.1222 74.2857 24.0682 73.943 24.0682ZM78.7483 23.2114C79.072 23.2114 79.4274 23.2273 79.8146 23.259C80.208 23.2844 80.5476 23.3225 80.8332 23.3733L80.757 24.1254C80.4587 24.119 80.1573 24.1127 79.8526 24.1063C79.548 24.0936 79.2497 24.0873 78.9578 24.0873C78.6912 24.0873 78.4849 24.0936 78.339 24.1063C78.193 24.119 78.0883 24.1571 78.0248 24.2206C77.9677 24.284 77.9391 24.3919 77.9391 24.5442C77.9391 24.7346 77.9899 24.8584 78.0914 24.9155C78.193 24.9726 78.358 25.0298 78.5865 25.0869L79.8622 25.382C80.243 25.4772 80.5254 25.6232 80.7094 25.8199C80.8935 26.0103 80.9855 26.3054 80.9855 26.7053C80.9855 27.0924 80.9125 27.3875 80.7666 27.5906C80.6206 27.7874 80.3953 27.9238 80.0906 28C79.786 28.0698 79.3957 28.1047 78.9197 28.1047C78.7293 28.1047 78.4532 28.0952 78.0914 28.0762C77.736 28.0635 77.3425 28.0222 76.911 27.9524L76.9871 27.2003C77.1839 27.2067 77.425 27.213 77.7106 27.2194C78.0026 27.2257 78.304 27.2257 78.615 27.2194C78.9451 27.2194 79.2021 27.2098 79.3862 27.1908C79.5702 27.1654 79.6971 27.1178 79.767 27.048C79.8368 26.9782 79.8717 26.8703 79.8717 26.7243C79.8717 26.5466 79.8114 26.4292 79.6908 26.3721C79.5766 26.3086 79.4052 26.2483 79.1767 26.1912L77.9296 25.8866C77.5107 25.7787 77.2188 25.62 77.0538 25.4106C76.8951 25.1948 76.8158 24.8965 76.8158 24.5157C76.8158 24.0079 76.9649 23.6621 77.2632 23.478C77.5615 23.2939 78.0565 23.2051 78.7483 23.2114ZM83.7128 23.2114C84.0365 23.2114 84.3919 23.2273 84.7791 23.259C85.1726 23.2844 85.5121 23.3225 85.7977 23.3733L85.7216 24.1254C85.4233 24.119 85.1218 24.1127 84.8172 24.1063C84.5125 24.0936 84.2142 24.0873 83.9223 24.0873C83.6557 24.0873 83.4495 24.0936 83.3035 24.1063C83.1575 24.119 83.0528 24.1571 82.9893 24.2206C82.9322 24.284 82.9036 24.3919 82.9036 24.5442C82.9036 24.7346 82.9544 24.8584 83.056 24.9155C83.1575 24.9726 83.3225 25.0298 83.551 25.0869L84.8267 25.382C85.2075 25.4772 85.4899 25.6232 85.674 25.8199C85.858 26.0103 85.95 26.3054 85.95 26.7053C85.95 27.0924 85.8771 27.3875 85.7311 27.5906C85.5851 27.7874 85.3598 27.9238 85.0552 28C84.7505 28.0698 84.3602 28.1047 83.8842 28.1047C83.6938 28.1047 83.4177 28.0952 83.056 28.0762C82.7006 28.0635 82.3071 28.0222 81.8755 27.9524L81.9516 27.2003C82.1484 27.2067 82.3896 27.213 82.6752 27.2194C82.9671 27.2257 83.2686 27.2257 83.5796 27.2194C83.9096 27.2194 84.1666 27.2098 84.3507 27.1908C84.5347 27.1654 84.6617 27.1178 84.7315 27.048C84.8013 26.9782 84.8362 26.8703 84.8362 26.7243C84.8362 26.5466 84.7759 26.4292 84.6553 26.3721C84.5411 26.3086 84.3697 26.2483 84.1412 26.1912L82.8941 25.8866C82.4752 25.7787 82.1833 25.62 82.0183 25.4106C81.8596 25.1948 81.7803 24.8965 81.7803 24.5157C81.7803 24.0079 81.9294 23.6621 82.2277 23.478C82.526 23.2939 83.0211 23.2051 83.7128 23.2114ZM89.0772 23.2114C89.8325 23.2114 90.3751 23.3447 90.7051 23.6113C91.0352 23.8715 91.2034 24.2586 91.2097 24.7727C91.2097 25.1979 91.1082 25.5216 90.9051 25.7438C90.702 25.9595 90.3624 26.0674 89.8864 26.0674H88.011C88.0491 26.5181 88.1665 26.8163 88.3632 26.9623C88.56 27.1083 88.8646 27.1813 89.2771 27.1813C89.512 27.1813 89.7817 27.1718 90.0863 27.1527C90.3973 27.1337 90.6956 27.1083 90.9812 27.0766L91.0955 27.8096C90.8416 27.9175 90.5306 27.9937 90.1625 28.0381C89.7944 28.0889 89.4548 28.1142 89.1439 28.1142C88.2871 28.1142 87.6778 27.9238 87.316 27.543C86.9606 27.1559 86.7829 26.5307 86.7829 25.6676C86.7829 25.052 86.8591 24.5665 87.0114 24.211C87.17 23.8493 87.4176 23.5922 87.7539 23.4399C88.0903 23.2876 88.5314 23.2114 89.0772 23.2114ZM89.1248 24.0682C88.8456 24.0682 88.6266 24.1031 88.4679 24.173C88.3093 24.2428 88.1919 24.3729 88.1157 24.5633C88.0395 24.7473 87.9983 25.0107 87.9919 25.3534H89.5723C89.788 25.3534 89.9245 25.2963 89.9816 25.1821C90.0451 25.0678 90.0768 24.9282 90.0768 24.7632C90.0768 24.5093 90.0038 24.3316 89.8579 24.2301C89.7119 24.1222 89.4675 24.0682 89.1248 24.0682ZM93.9301 23.2114C94.2538 23.2114 94.6092 23.2273 94.9964 23.259C95.3898 23.2844 95.7294 23.3225 96.015 23.3733L95.9388 24.1254C95.6405 24.119 95.3391 24.1127 95.0344 24.1063C94.7298 24.0936 94.4315 24.0873 94.1396 24.0873C93.873 24.0873 93.6667 24.0936 93.5208 24.1063C93.3748 24.119 93.2701 24.1571 93.2066 24.2206C93.1495 24.284 93.1209 24.3919 93.1209 24.5442C93.1209 24.7346 93.1717 24.8584 93.2732 24.9155C93.3748 24.9726 93.5398 25.0298 93.7683 25.0869L95.044 25.382C95.4248 25.4772 95.7072 25.6232 95.8912 25.8199C96.0753 26.0103 96.1673 26.3054 96.1673 26.7053C96.1673 27.0924 96.0943 27.3875 95.9484 27.5906C95.8024 27.7874 95.5771 27.9238 95.2724 28C94.9678 28.0698 94.5775 28.1047 94.1015 28.1047C93.9111 28.1047 93.635 28.0952 93.2732 28.0762C92.9178 28.0635 92.5243 28.0222 92.0928 27.9524L92.1689 27.2003C92.3657 27.2067 92.6068 27.213 92.8924 27.2194C93.1844 27.2257 93.4858 27.2257 93.7968 27.2194C94.1269 27.2194 94.3839 27.2098 94.568 27.1908C94.752 27.1654 94.8789 27.1178 94.9488 27.048C95.0186 26.9782 95.0535 26.8703 95.0535 26.7243C95.0535 26.5466 94.9932 26.4292 94.8726 26.3721C94.7584 26.3086 94.587 26.2483 94.3585 26.1912L93.1114 25.8866C92.6925 25.7787 92.4006 25.62 92.2356 25.4106C92.0769 25.1948 91.9976 24.8965 91.9976 24.5157C91.9976 24.0079 92.1467 23.6621 92.445 23.478C92.7433 23.2939 93.2383 23.2051 93.9301 23.2114Z" fill="#96A0AA"/>
<path d="M5.55632 9.65911C5.71237 9.65911 5.84789 9.7125 5.96288 9.81927C6.07787 9.91783 6.14357 10.041 6.16 10.1889L7.50288 18.1599H5.63024L5.33456 15.93H2.4024L1.4784 18.1599H-0.48048L3.10464 10.115C3.21141 9.81106 3.43728 9.65911 3.78224 9.65911H5.55632ZM4.10256 11.8767L3.00608 14.4886H5.13744L4.79248 11.889C4.77605 11.7494 4.76373 11.6098 4.75552 11.4702C4.74731 11.3305 4.7432 11.1909 4.7432 11.0513H4.38592C4.34485 11.1745 4.29968 11.31 4.2504 11.4578C4.20112 11.5975 4.15184 11.7371 4.10256 11.8767ZM12.3125 9.62215C12.9942 9.62215 13.6842 9.63037 14.3823 9.64679C15.0804 9.65501 15.717 9.68786 16.2919 9.74535L16.0701 11.1129H12.8916C12.6452 11.1129 12.4645 11.1663 12.3495 11.273C12.2427 11.3716 12.1729 11.54 12.14 11.7782L11.9552 13.0841H15.3186L15.1584 14.39H11.7828L11.5487 16.0655C11.483 16.4926 11.6719 16.7062 12.1154 16.7062H15.257L15.22 18.0737C14.6533 18.1394 14.0291 18.1722 13.3474 18.1722C12.6739 18.1804 12.0333 18.1846 11.4255 18.1846C10.7602 18.1846 10.2756 17.9998 9.97173 17.6302C9.66783 17.2606 9.55695 16.776 9.63909 16.1764L10.329 11.2977C10.3947 10.7802 10.5959 10.3737 10.9327 10.078C11.2694 9.7741 11.7294 9.62215 12.3125 9.62215ZM21.9117 9.56055C22.6262 9.56055 23.1971 9.63037 23.6241 9.76999C24.0595 9.90141 24.3592 10.1314 24.5235 10.4599C24.696 10.7884 24.7412 11.2484 24.659 11.8398C24.5769 12.4393 24.4085 12.8911 24.1539 13.195C23.8993 13.4988 23.4927 13.6754 22.9342 13.7247L22.9219 13.7863C23.5708 13.8438 24.002 14.0779 24.2155 14.4886C24.4373 14.891 24.4989 15.429 24.4003 16.1025C24.3182 16.6856 24.1621 17.1332 23.9321 17.4454C23.7022 17.7492 23.3736 17.9628 22.9465 18.086C22.5195 18.201 21.9692 18.2585 21.2957 18.2585C20.7207 18.2585 20.2238 18.2544 19.8049 18.2462C19.3943 18.2462 19.0165 18.2379 18.6715 18.2215C18.3265 18.2051 17.9734 18.1846 17.612 18.1599L18.807 9.65911C19.1273 9.62626 19.4395 9.60573 19.7433 9.59751C20.0472 9.58109 20.3717 9.57287 20.7166 9.57287C21.0616 9.56466 21.4599 9.56055 21.9117 9.56055ZM21.8501 10.9404C21.579 10.9404 21.3285 10.9404 21.0985 10.9404C20.8686 10.9404 20.655 10.9404 20.4579 10.9404L20.1499 13.1457H21.4681C21.9363 13.1457 22.2689 13.0676 22.4661 12.9116C22.6632 12.7555 22.7946 12.4393 22.8603 11.963C22.9178 11.5523 22.8726 11.2812 22.7248 11.1498C22.5769 11.0102 22.2854 10.9404 21.8501 10.9404ZM21.4189 14.3654H19.9774L19.6325 16.8663C20.0267 16.8663 20.4661 16.8663 20.9507 16.8663C21.3121 16.8663 21.5996 16.8335 21.8131 16.7678C22.0267 16.702 22.1868 16.5788 22.2936 16.3982C22.4086 16.2175 22.4907 15.9546 22.54 15.6097C22.6057 15.1169 22.5605 14.7883 22.4045 14.6241C22.2484 14.4598 21.9199 14.3736 21.4189 14.3654Z" fill="#96A0AA"/>
</g>
<defs>
<clipPath id="clip0">
<rect width="101" height="29" fill="white"/>
</clipPath>
</defs>
</svg>
