<svg width="48" height="48" viewBox="0 0 48 48" fill="none" xmlns="http://www.w3.org/2000/svg">
<path fill-rule="evenodd" clip-rule="evenodd" d="M10 20L0 32H6V34C6 41.732 12.268 48 20 48H28C35.732 48 42 41.732 42 34H34C34 37.3137 31.3137 40 28 40H20C16.6863 40 14 37.3137 14 34V32H20L10 20Z" fill="#506478"/>
<path fill-rule="evenodd" clip-rule="evenodd" d="M20 8C16.6863 8 14 10.6863 14 14H6C6 6.26801 12.268 0 20 0H28C35.732 0 42 6.26801 42 14V20H48L38 32L28 20H34V14C34 10.6863 31.3137 8 28 8H20Z" fill="#506478" fill-opacity="0.3"/>
</svg>
