<svg width="48" height="48" viewBox="0 0 48 48" fill="none" xmlns="http://www.w3.org/2000/svg">
<path fill-rule="evenodd" clip-rule="evenodd" d="M44 14H4V42H44V14ZM29.6568 19.5147L32.4852 22.3432L18.3431 36.4853L15.5146 33.6569L29.6568 19.5147ZM22 23C22 24.6569 20.6569 26 19 26C17.3432 26 16 24.6569 16 23C16 21.3431 17.3432 20 19 20C20.6569 20 22 21.3431 22 23ZM32 33C32 34.6569 30.6569 36 29 36C27.3432 36 26 34.6569 26 33C26 31.3431 27.3432 30 29 30C30.6569 30 32 31.3431 32 33Z" fill="#506478" fill-opacity="0.6"/>
<path d="M18 10.2143L18 14L14 14L14 10.2143C14 6.82003 16.6991 4 20.1248 4H27.8751C31.3008 4 34 6.82003 34 10.2143L34 14L30 14L30 10.2143C30 8.94784 29.0112 8 27.8751 8H20.1248C18.9888 8 18 8.94784 18 10.2143Z" fill="#506478" fill-opacity="0.3"/>
</svg>
