<svg width="48" height="48" viewBox="0 0 48 48" fill="none" xmlns="http://www.w3.org/2000/svg">
<path fill-rule="evenodd" clip-rule="evenodd" d="M23.5284 36.5589H26.1572C26.1572 36.5589 26.952 36.4693 27.3576 36.0227C27.7314 35.612 27.7194 34.842 27.7194 34.842C27.7194 34.842 27.6679 31.2336 29.3057 30.7019C30.9204 30.1781 32.9935 34.1894 35.1914 35.7317C36.8523 36.8991 38.1152 36.6428 38.1152 36.6428L43.9911 36.5589C43.9911 36.5589 47.065 36.3652 45.6081 33.894C45.4886 33.6925 44.7585 32.0663 41.2384 28.7254C37.5539 25.2289 38.0483 25.7941 42.4859 19.7458C45.1893 16.0624 46.2691 13.8138 45.9315 12.8502C45.6103 11.9335 43.6216 12.1753 43.6216 12.1753L37.0058 12.2178C37.0058 12.2178 36.5146 12.1484 36.1518 12.3711C35.7955 12.5883 35.5675 13.0975 35.5675 13.0975C35.5675 13.0975 34.5205 15.9482 33.1239 18.3725C30.1783 23.4862 28.9998 23.7571 28.5186 23.4392C27.3982 22.6983 27.6788 20.4654 27.6788 18.8795C27.6788 13.9213 28.4133 11.8552 26.246 11.3202C25.5269 11.1422 24.9974 11.0247 23.1579 11.0057C20.7976 10.9811 18.8003 11.0135 17.6689 11.5798C16.9158 11.957 16.3348 12.7965 16.6889 12.8446C17.1263 12.905 18.1162 13.1188 18.6413 13.8485C19.3199 14.792 19.2958 16.9107 19.2958 16.9107C19.2958 16.9107 19.6849 22.7453 18.3859 23.4694C17.4935 23.9675 16.2712 22.9524 13.6446 18.3109C12.2995 15.9348 11.2832 13.3068 11.2832 13.3068C11.2832 13.3068 11.087 12.8155 10.7373 12.5525C10.3131 12.2346 9.72108 12.1327 9.72108 12.1327L3.43406 12.1753C3.43406 12.1753 2.49018 12.2021 2.14377 12.6219C1.83572 12.9957 2.11855 13.7679 2.11855 13.7679C2.11855 13.7679 7.04074 25.5423 12.6141 31.4753C17.7248 36.917 23.5284 36.5589 23.5284 36.5589H23.5284Z" fill="white"/>
</svg>
