<svg width="48" height="48" viewBox="0 0 48 48" fill="none" xmlns="http://www.w3.org/2000/svg">
<path fill-rule="evenodd" clip-rule="evenodd" d="M8 6H44V39L36 33H8V6ZM10 26C10 27.1036 10.8964 28 12 28C13.1036 28 13.9975 27.1036 14 26C14 24.8964 13.1036 24 12 24C10.8964 24 10 24.8964 10 26ZM16 26C16 27.1036 16.8964 28 18 28C19.1036 28 19.9975 27.1036 20 26C20 24.8964 19.1036 24 18 24C16.8964 24 16 24.8964 16 26ZM24 28C22.8964 28 22 27.1036 22 26C22 24.8964 22.8964 24 24 24C25.1036 24 26 24.8964 26 26C25.9975 27.1036 25.1036 28 24 28Z" fill="white" fill-opacity="0.6"/>
<path fill-rule="evenodd" clip-rule="evenodd" d="M4 14H32V38H12L4 44V14ZM10 26C10 27.1036 10.8964 28 12 28C13.1036 28 13.9975 27.1036 14 26C14 24.8964 13.1036 24 12 24C10.8964 24 10 24.8964 10 26ZM16 26C16 27.1036 16.8964 28 18 28C19.1036 28 19.9975 27.1036 20 26C20 24.8964 19.1036 24 18 24C16.8964 24 16 24.8964 16 26ZM24 28C22.8964 28 22 27.1036 22 26C22 24.8964 22.8964 24 24 24C25.1036 24 26 24.8964 26 26C25.9975 27.1036 25.1036 28 24 28Z" fill="white"/>
</svg>
