<svg width="24" height="24" viewBox="0 0 24 24" fill="none" xmlns="http://www.w3.org/2000/svg">
<path d="M8.47141 12.2191C5.53958 13.4781 3.5 16.2564 3.5 19.4773V22H20.5V19.4773C20.5 16.2564 18.4604 13.4781 15.5286 12.2191C14.5736 13.0186 13.343 13.5 12 13.5C10.657 13.5 9.42644 13.0186 8.47141 12.2191Z" fill="white"/>
<path fill-rule="evenodd" clip-rule="evenodd" d="M12 2C8.96243 2 6.5 4.46243 6.5 7.5V8C6.5 11.0376 8.96243 13.5 12 13.5C15.0376 13.5 17.5 11.0376 17.5 8V7.5C17.5 4.46243 15.0376 2 12 2ZM12.0187 11.5C10.0722 11.5 8.5 9.93617 8.5 8H15.5C15.5 9.89894 13.9652 11.5 12.0187 11.5Z" fill="white" fill-opacity="0.6"/>
</svg>
