<svg width="48" height="48" viewBox="0 0 48 48" fill="none" xmlns="http://www.w3.org/2000/svg">
<path fill-rule="evenodd" clip-rule="evenodd" d="M39 44H29.0312V28.9837H34.5163L35.3375 24.01H29.0312V19.2C29.0312 17.6162 29.455 16.49 31.7262 16.49L35.27 16.4913V11.7512C34.7687 11.685 33.7162 11.4688 31.715 11.4688C27.5375 11.4688 23.9937 14.2487 23.9937 18.9312V24.01H18.9975V28.9837H23.9925V44H9C6.23875 44 4 41.7612 4 39V9C4 6.23875 6.23875 4 9 4H39C41.7612 4 44 6.23875 44 9V39C44 41.7612 41.7612 44 39 44ZM29.0313 44.0001H23.9925H29.0313Z" fill="#506478"/>
</svg>
