<svg width="48" height="48" viewBox="0 0 48 48" fill="none" xmlns="http://www.w3.org/2000/svg">
<path fill-rule="evenodd" clip-rule="evenodd" d="M12.0761 38.3689C10.1307 35.3873 9 31.8257 9 28C9 17.5066 17.5066 9 28 9C31.8257 9 35.3873 10.1307 38.3689 12.0761C35.3002 4.97188 28.2307 0 20 0C8.9543 0 0 8.9543 0 20C0 28.2307 4.97188 35.3002 12.0761 38.3689Z" fill="#506478"/>
<path fill-rule="evenodd" clip-rule="evenodd" d="M48 28C48 39.0457 39.0457 48 28 48C16.9543 48 8 39.0457 8 28C8 16.9543 16.9543 8 28 8C39.0457 8 48 16.9543 48 28ZM30 15H27V17.4362C26.0556 17.5482 25.1854 17.7807 24.3892 18.1335C23.2225 18.6506 22.3045 19.3698 21.635 20.2912C20.9721 21.2126 20.644 22.2898 20.6506 23.5227C20.644 25.0274 21.1378 26.2239 22.1321 27.1122C23.1264 28.0005 24.482 28.6534 26.1989 29.071L28.4162 29.6278C29.1586 29.8068 29.785 30.0057 30.2955 30.2244C30.8125 30.4432 31.2036 30.7083 31.4688 31.0199C31.7405 31.3314 31.8764 31.7159 31.8764 32.1733C31.8764 32.6638 31.7273 33.098 31.429 33.4758C31.1307 33.8537 30.7098 34.1487 30.1662 34.3608C29.6293 34.5729 28.9962 34.679 28.2671 34.679C27.5246 34.679 26.8584 34.5663 26.2685 34.3409C25.6851 34.1089 25.2178 33.7675 24.8665 33.3167C24.5218 32.8594 24.3262 32.2893 24.2798 31.6065H20.1136C20.1468 33.0715 20.5014 34.3011 21.1776 35.2954C21.8603 36.2831 22.8083 37.0289 24.0213 37.5327C24.9033 37.897 25.8962 38.1295 27 38.2304V41H30V38.1932C30.9541 38.079 31.8083 37.8622 32.5625 37.5426C33.7424 37.0388 34.644 36.3328 35.2671 35.4247C35.8968 34.5099 36.215 33.4294 36.2216 32.1832C36.215 31.3347 36.0592 30.5824 35.7543 29.9261C35.456 29.2699 35.035 28.6998 34.4915 28.2159C33.9479 27.732 33.3049 27.3243 32.5625 26.9929C31.8201 26.6614 31.0047 26.3963 30.1165 26.1974L28.2869 25.7599C27.8428 25.6605 27.4252 25.5412 27.0341 25.402C26.643 25.2561 26.2983 25.0871 26 24.8949C25.7017 24.696 25.4664 24.4607 25.294 24.1889C25.1283 23.9171 25.0521 23.5989 25.0654 23.2344C25.0654 22.7969 25.1913 22.4058 25.4432 22.0611C25.7017 21.7164 26.0729 21.4479 26.5568 21.2557C27.0407 21.0568 27.634 20.9574 28.3367 20.9574C29.3708 20.9574 30.1894 21.1794 30.7926 21.6236C31.3958 22.0677 31.7372 22.6908 31.8168 23.4929H35.9432C35.9233 22.2798 35.5985 21.2126 34.9688 20.2912C34.339 19.3698 33.4574 18.6506 32.3239 18.1335C31.6235 17.8122 30.8489 17.5907 30 17.469V15Z" fill="#96A0AA"/>
</svg>
