<svg width="48" height="48" viewBox="0 0 48 48" fill="none" xmlns="http://www.w3.org/2000/svg">
<path d="M6.89352 10.0294C6.89352 10.0294 0.554765 20.6612 13.9646 34.071C27.3744 47.4809 38.0314 41.1673 38.0314 41.1673L43.6883 35.5105L33.7888 28.4394L29.5461 32.682C29.5461 32.682 26.6927 32.6571 21.0358 27.0001C15.3789 21.3432 15.404 18.5399 15.404 18.5399L19.6466 14.2972L12.5505 4.37272L6.89352 10.0294Z" fill="#9BB652"/>
<path d="M9.74683 7.22613L18.2321 15.7114L21.0605 12.883L12.5753 4.39771L9.74683 7.22613Z" fill="#78A386"/>
<path d="M32.3743 29.8535L40.8595 38.3388L43.688 35.5104L35.2027 27.0251L32.3743 29.8535Z" fill="#78A386"/>
</svg>
