<svg width="48" height="48" viewBox="0 0 48 48" fill="none" xmlns="http://www.w3.org/2000/svg">
<path fill-rule="evenodd" clip-rule="evenodd" d="M8 48H14L18 34H4L8 48Z" fill="#285082"/>
<path fill-rule="evenodd" clip-rule="evenodd" d="M22 34H0V25C0 18.9249 4.92487 14 11 14C17.0751 14 22 18.9249 22 25V34Z" fill="#F9C1CB"/>
<path fill-rule="evenodd" clip-rule="evenodd" d="M48 34H26V25C26 18.9249 30.9249 14 37 14C43.0751 14 48 18.9249 48 25V34Z" fill="#CEDC00"/>
<path fill-rule="evenodd" clip-rule="evenodd" d="M32 48H42V34H32V48Z" fill="#285082"/>
<path fill-rule="evenodd" clip-rule="evenodd" d="M16 5.00016C16 2.23876 13.7613 0 11 0C8.23868 0 6 2.23876 6 5.00016C6 7.76124 8.23868 10 11 10C13.7613 10 16 7.76124 16 5.00016Z" fill="#6EA0E3"/>
<path fill-rule="evenodd" clip-rule="evenodd" d="M42 5.00016C42 2.23876 39.7613 0 37 0C34.2387 0 32 2.23876 32 5.00016C32 7.76124 34.2387 10 37 10C39.7613 10 42 7.76124 42 5.00016Z" fill="#6EA0E3"/>
</svg>
