<svg width="48" height="48" viewBox="0 0 48 48" fill="none" xmlns="http://www.w3.org/2000/svg">
<path fill-rule="evenodd" clip-rule="evenodd" d="M10.7524 18.668L20.2919 10.2509L26.9081 17.7492L17.3686 26.1664C15.8627 27.4952 15 29.4069 15 31.4153V36H20L10 48L0 36H5V31.4153C5 26.5377 7.09506 21.8951 10.7524 18.668Z" fill="white" fill-opacity="0.3"/>
<path fill-rule="evenodd" clip-rule="evenodd" d="M29 10.3205V0H19V10.3205C19 14.1155 20.6583 17.7211 23.5397 20.1909L30.5555 26.2044C32.1071 27.5343 33 29.4757 33 31.5192V36H28L38 48L48 36H43V31.5192C43 26.5565 40.8314 21.8416 37.0635 18.6119L30.0476 12.5983C29.3827 12.0283 29 11.1963 29 10.3205Z" fill="white"/>
</svg>
