<svg width="48" height="48" viewBox="0 0 48 48" fill="none" xmlns="http://www.w3.org/2000/svg">
<path fill-rule="evenodd" clip-rule="evenodd" d="M46 11.0758C44.3805 11.7673 42.6413 12.2351 40.8153 12.4448C42.6787 11.3694 44.1103 9.66595 44.7838 7.63557C43.0401 8.6314 41.1076 9.35516 39.0519 9.74446C37.405 8.05499 35.0593 7 32.4631 7C26.6357 7 22.3531 12.2362 23.6693 17.6746C16.1675 17.3122 9.51608 13.8504 5.06422 8.59054C2.69876 12.4975 3.837 17.61 7.85707 20.1975C6.37715 20.1523 4.98512 19.7609 3.76888 19.1103C3.67 23.1377 6.6672 26.9038 11.0092 27.7437C9.73801 28.0771 8.34708 28.1534 6.93198 27.8921C8.0812 31.3463 11.4146 33.8596 15.3655 33.9295C11.5695 36.7933 6.79025 38.073 2 37.53C5.99481 39.9959 10.74 41.4348 15.8379 41.4348C32.5972 41.4348 42.0656 27.8028 41.4954 15.5754C43.2588 14.3505 44.7893 12.8191 46 11.0758H46Z" fill="white"/>
</svg>
