<svg width="48" height="48" viewBox="0 0 48 48" fill="none" xmlns="http://www.w3.org/2000/svg">
<path fill-rule="evenodd" clip-rule="evenodd" d="M3.05226 24.0641C1.71035 23.6793 1.63091 21.863 2.93493 21.3702L43.1765 6.14079C44.7078 5.56053 46.2905 6.86252 45.9544 8.42466L39.0835 40.3258C38.7609 41.8232 36.9533 42.4958 35.6835 41.5906L25.31 34.1959L20.023 39.4386C19.0954 40.3582 17.4919 39.9853 17.0947 38.7577L17.0771 38.7036L19.1063 29.8941C19.1344 29.6543 19.2529 29.4325 19.4387 29.2731L38.1302 13.2188C38.5787 12.8352 38.0581 12.1566 37.5509 12.4623L13.284 27.0152L13.2779 26.9966L3.05226 24.0641Z" fill="#506478"/>
</svg>
