<svg width="48" height="48" viewBox="0 0 48 48" fill="none" xmlns="http://www.w3.org/2000/svg">
<path fill-rule="evenodd" clip-rule="evenodd" d="M22 48H2V46C2 40.4772 6.47715 36 12 36C17.5228 36 22 40.4772 22 46V48Z" fill="white" fill-opacity="0.6"/>
<path fill-rule="evenodd" clip-rule="evenodd" d="M16 30.0001C16 27.791 14.2091 26 12 26C9.79095 26 8 27.791 8 30.0001C8 32.209 9.79095 34 12 34C14.2091 34 16 32.209 16 30.0001Z" fill="white"/>
<path fill-rule="evenodd" clip-rule="evenodd" d="M40 30.0001C40 27.791 38.2091 26 36 26C33.7909 26 32 27.791 32 30.0001C32 32.209 33.7909 34 36 34C38.2091 34 40 32.209 40 30.0001Z" fill="white"/>
<path fill-rule="evenodd" clip-rule="evenodd" d="M46 48H26V46C26 40.4772 30.4772 36 36 36C41.5228 36 46 40.4772 46 46V48Z" fill="white" fill-opacity="0.6"/>
<path fill-rule="evenodd" clip-rule="evenodd" d="M28 4.00013C28 1.79101 26.2091 0 24 0C21.7909 0 20 1.79101 20 4.00013C20 6.20899 21.7909 8 24 8C26.2091 8 28 6.20899 28 4.00013Z" fill="white"/>
<path fill-rule="evenodd" clip-rule="evenodd" d="M34 22H14V20C14 14.4772 18.4772 10 24 10C29.5228 10 34 14.4772 34 20V22Z" fill="white" fill-opacity="0.6"/>
</svg>
