<svg width="48" height="48" viewBox="0 0 48 48" fill="none" xmlns="http://www.w3.org/2000/svg">
<path d="M38 29C35.2409 29 33 26.7591 33 24C33 21.2409 35.2409 19 38 19C40.7591 19 43 21.2409 43 24C42.9938 26.7591 40.7591 29 38 29Z" fill="#BEDCFB"/>
<path d="M24 29C21.2409 29 19 26.7591 19 24C19 21.2409 21.2409 19 24 19C26.7591 19 29 21.2409 29 24C28.9938 26.7591 26.7591 29 24 29Z" fill="#95BEF0"/>
<path d="M10 29C7.24095 29 5 26.7591 5 24C5 21.2409 7.24095 19 10 19C12.7591 19 15 21.2409 15 24C14.9938 26.7591 12.7591 29 10 29Z" fill="#285082"/>
</svg>
