<svg width="48" height="48" viewBox="0 0 48 48" fill="none" xmlns="http://www.w3.org/2000/svg">
<path fill-rule="evenodd" clip-rule="evenodd" d="M24 8C37.2543 8 48 24.0005 48 24.0005C48 24.0005 37.2543 40 24 40C10.7457 40 0 24.0005 0 24.0005C0 24.0005 10.7457 8 24 8ZM24 35C30.0751 35 35 30.0751 35 24C35 17.9249 30.0751 13 24 13C17.9249 13 13 17.9249 13 24C13 30.0751 17.9249 35 24 35Z" fill="white" fill-opacity="0.3"/>
<circle cx="24" cy="24" r="7" fill="white" fill-opacity="0.6"/>
<path d="M42 2L45.5355 5.53553L5.23045 45.8406L1.69491 42.3051L42 2Z" fill="white"/>
</svg>
