<svg width="48" height="48" viewBox="0 0 48 48" fill="none" xmlns="http://www.w3.org/2000/svg">
<path fill-rule="evenodd" clip-rule="evenodd" d="M42.9496 16.1005C48.4169 21.5678 48.5501 28.9999 42.9496 35.8995L33.05 47.9999L23.1506 35.8995C17.5501 28.9999 17.6833 21.5678 23.1506 16.1005C28.618 10.6332 37.4823 10.6332 42.9496 16.1005ZM33.05 30.9999C35.8115 30.9999 38.05 28.7614 38.05 25.9999C38.05 23.2385 35.8115 20.9999 33.05 20.9999C30.2886 20.9999 28.05 23.2385 28.05 25.9999C28.05 28.7614 30.2886 30.9999 33.05 30.9999Z" fill="#506478" fill-opacity="0.3"/>
<path fill-rule="evenodd" clip-rule="evenodd" d="M23 34H1V25C1 18.9249 5.92487 14 12 14C18.0751 14 23 18.9249 23 25V34Z" fill="#506478"/>
<path fill-rule="evenodd" clip-rule="evenodd" d="M7 48H17V34H7V48Z" fill="#506478" fill-opacity="0.6"/>
<path fill-rule="evenodd" clip-rule="evenodd" d="M17 5.00016C17 2.23876 14.7613 0 12 0C9.23868 0 7 2.23876 7 5.00016C7 7.76124 9.23868 10 12 10C14.7613 10 17 7.76124 17 5.00016Z" fill="#506478" fill-opacity="0.3"/>
</svg>
