<svg width="48" height="48" viewBox="0 0 48 48" fill="none" xmlns="http://www.w3.org/2000/svg">
<path fill-rule="evenodd" clip-rule="evenodd" d="M8.99998 48H15L18.4286 36H5.57141L8.99998 48Z" fill="white" fill-opacity="0.3"/>
<path fill-rule="evenodd" clip-rule="evenodd" d="M32 48H42V40H32V48Z" fill="white" fill-opacity="0.3"/>
<path fill-rule="evenodd" clip-rule="evenodd" d="M2 36H8H18H24V28C24 24.2723 21.4505 21.1401 18 20.252V20C18 15.5817 14.4183 12 10 12C5.58172 12 2 15.5817 2 20V36Z" fill="white" fill-opacity="0.6"/>
<path fill-rule="evenodd" clip-rule="evenodd" d="M46 40H28V33C28 28.0294 32.0294 24 37 24C41.9706 24 46 28.0294 46 33V40Z" fill="white" fill-opacity="0.6"/>
<path fill-rule="evenodd" clip-rule="evenodd" d="M42 15.0002C42 12.2388 39.7613 10 37 10C34.2387 10 32 12.2388 32 15.0002C32 17.7612 34.2387 20 37 20C39.7613 20 42 17.7612 42 15.0002Z" fill="white"/>
<path fill-rule="evenodd" clip-rule="evenodd" d="M15 5.50018C15 2.46263 12.5374 0 9.5 0C6.46255 0 4 2.46263 4 5.50018C4 8.53737 6.46255 11 9.5 11C12.5374 11 15 8.53737 15 5.50018Z" fill="white"/>
</svg>
