<svg width="48" height="48" viewBox="0 0 48 48" fill="none" xmlns="http://www.w3.org/2000/svg">
<rect x="8" width="36" height="48" fill="#BEDCFB"/>
<rect y="26" width="32" height="16" fill="#50287D"/>
<path fill-rule="evenodd" clip-rule="evenodd" d="M38 12V8H14V12H38ZM38 20V16H14V20H38Z" fill="white"/>
<path fill-rule="evenodd" clip-rule="evenodd" d="M4.98401 29.384V38H6.80801V34.82H7.50401C9.08801 34.82 10.36 33.788 10.36 32.108C10.36 30.464 9.13601 29.384 7.49201 29.384H4.98401ZM7.70798 31.2921C8.21198 31.2921 8.54798 31.5921 8.54798 32.1081C8.54798 32.6241 8.21198 32.9121 7.70798 32.9121H6.80798V31.2921H7.70798ZM12.408 38V29.384H15.132C17.868 29.384 19.848 30.932 19.848 33.692C19.848 36.488 17.712 38 15.132 38H12.408ZM15.6121 36.0321H14.2321V31.3521H15.6121C16.2601 31.3521 16.8481 31.5801 17.3161 32.0241C17.7601 32.4921 17.9761 33.0441 17.9761 33.6921C17.9761 35.0481 17.0041 36.0321 15.6121 36.0321ZM26.408 29.384H22.016V38H23.84V34.556H26.168V32.588H23.84V31.352H26.408V29.384Z" fill="white"/>
</svg>
