<svg width="48" height="48" viewBox="0 0 48 48" fill="none" xmlns="http://www.w3.org/2000/svg">
<path fill-rule="evenodd" clip-rule="evenodd" d="M44 0H8V26H32V42H8V48H44V0Z" fill="white" fill-opacity="0.3"/>
<rect y="26" width="32" height="16" fill="white" fill-opacity="0.6"/>
<path fill-rule="evenodd" clip-rule="evenodd" d="M4.98401 29.384V38H6.80801V34.82H7.50401C9.08801 34.82 10.36 33.788 10.36 32.108C10.36 30.464 9.13601 29.384 7.49201 29.384H4.98401ZM7.70799 31.292C8.21199 31.292 8.54799 31.592 8.54799 32.108C8.54799 32.624 8.21199 32.912 7.70799 32.912H6.80799V31.292H7.70799ZM12.408 38V29.384H15.132C17.868 29.384 19.848 30.932 19.848 33.692C19.848 36.488 17.712 38 15.132 38H12.408ZM15.612 36.032H14.232V31.352H15.612C16.26 31.352 16.848 31.58 17.316 32.024C17.76 32.492 17.976 33.044 17.976 33.692C17.976 35.048 17.004 36.032 15.612 36.032ZM26.408 29.384H22.016V38H23.84V34.556H26.168V32.588H23.84V31.352H26.408V29.384Z" fill="white"/>
<path d="M38 16V20H14V16H38Z" fill="white"/>
<path d="M38 8V12H14V8H38Z" fill="white"/>
</svg>
