<svg width="24" height="24" viewBox="0 0 24 24" fill="none" xmlns="http://www.w3.org/2000/svg">
<path fill-rule="evenodd" clip-rule="evenodd" d="M5.37622 9.33401L10.1459 5.12543L13.4541 8.87462L8.68432 13.0832C7.93133 13.7476 7.5 14.7034 7.5 15.7076V18H10L5 24L0 18H2.5V15.7076C2.5 13.2689 3.54753 10.9476 5.37622 9.33401Z" fill="#506478" fill-opacity="0.6"/>
<path fill-rule="evenodd" clip-rule="evenodd" d="M14.5 5.16026V0H9.5V5.16026C9.5 7.05777 10.3292 8.86054 11.7699 10.0954L15.2778 13.1022C16.0535 13.7671 16.5 14.7379 16.5 15.7596V18H14L19 24L24 18H21.5V15.7596C21.5 13.2782 20.4157 10.9208 18.5317 9.30593L15.0238 6.29915C14.6913 6.01417 14.5 5.59815 14.5 5.16026Z" fill="#506478"/>
</svg>
