<svg width="24" height="24" viewBox="0 0 24 24" fill="none" xmlns="http://www.w3.org/2000/svg">
<path fill-rule="evenodd" clip-rule="evenodd" d="M6.03807 19.1845C5.06535 17.6937 4.5 15.9129 4.5 14C4.5 8.75329 8.75329 4.5 14 4.5C15.9129 4.5 17.6937 5.06535 19.1845 6.03807C17.6501 2.48594 14.1154 0 10 0C4.47715 0 0 4.47715 0 10C0 14.1154 2.48594 17.6501 6.03807 19.1845Z" fill="#506478"/>
<path fill-rule="evenodd" clip-rule="evenodd" d="M24 14C24 19.5228 19.5228 24 14 24C8.47715 24 4 19.5228 4 14C4 8.47715 8.47715 4 14 4C19.5228 4 24 8.47715 24 14ZM11 9H15.5C17.433 9 19 10.567 19 12.5C19 14.433 17.433 16 15.5 16H13V19H11V9ZM15.5 11H13V14H15.5C16.3284 14 17 13.3284 17 12.5C17 11.6716 16.3284 11 15.5 11Z" fill="#96A0AA"/>
</svg>
