<svg width="24" height="24" viewBox="0 0 24 24" fill="none" xmlns="http://www.w3.org/2000/svg">
<path fill-rule="evenodd" clip-rule="evenodd" d="M11 21H0V16.5C0 13.4624 2.46243 11 5.5 11C8.53757 11 11 13.4624 11 16.5V21Z" fill="#506478"/>
<path fill-rule="evenodd" clip-rule="evenodd" d="M8 6.50008C8 5.11938 6.88066 4 5.5 4C4.11934 4 3 5.11938 3 6.50008C3 7.88062 4.11934 9 5.5 9C6.88066 9 8 7.88062 8 6.50008Z" fill="#506478" fill-opacity="0.6"/>
<path fill-rule="evenodd" clip-rule="evenodd" d="M21 6.50008C21 5.11938 19.8807 4 18.5 4C17.1193 4 16 5.11938 16 6.50008C16 7.88062 17.1193 9 18.5 9C19.8807 9 21 7.88062 21 6.50008Z" fill="#506478" fill-opacity="0.6"/>
<path fill-rule="evenodd" clip-rule="evenodd" d="M24 21H13V16.5C13 13.4624 15.4624 11 18.5 11C21.5376 11 24 13.4624 24 16.5V21Z" fill="#506478"/>
</svg>
