<svg width="48" height="48" viewBox="0 0 48 48" fill="none" xmlns="http://www.w3.org/2000/svg">
<path fill-rule="evenodd" clip-rule="evenodd" d="M48 24.0005C48 24.0005 37.2543 8 24 8C10.7457 8 0 24.0005 0 24.0005C0 24.0005 10.7457 40 24 40C37.2543 40 48 24.0005 48 24.0005Z" fill="#BEDCFB"/>
<circle cx="24" cy="24" r="11" fill="white"/>
<path fill-rule="evenodd" clip-rule="evenodd" d="M30.8492 22.5478C30.2961 22.8367 29.6671 23 29 23C26.7909 23 25 21.2091 25 19C25 18.3329 25.1633 17.7039 25.4522 17.1508C24.9837 17.052 24.4979 17 24 17C20.134 17 17 20.134 17 24C17 27.866 20.134 31 24 31C27.866 31 31 27.866 31 24C31 23.5021 30.948 23.0163 30.8492 22.5478Z" fill="#5C6F81"/>
</svg>
