<svg width="48" height="48" viewBox="0 0 48 48" fill="none" xmlns="http://www.w3.org/2000/svg">
<path fill-rule="evenodd" clip-rule="evenodd" d="M24 44C12.9543 44 4 35.0457 4 24C4 12.9543 12.9543 4 24 4C35.0457 4 44 12.9543 44 24C44 35.0457 35.0457 44 24 44ZM23.9999 39.9999C32.8364 39.9999 39.9999 32.8364 39.9999 23.9999C39.9999 15.1633 32.8364 7.99988 23.9999 7.99988C15.1633 7.99988 7.99985 15.1633 7.99985 23.9999C7.99985 32.8364 15.1633 39.9999 23.9999 39.9999Z" fill="white"/>
<path d="M24 16C21.7909 16 20 17.7909 20 20H16C16 15.5817 19.5817 12 24 12C28.4183 12 32 15.5817 32 20C32 23.7277 29.4505 26.8599 26 27.748V30H22V24H24C26.2091 24 28 22.2091 28 20C28 17.7909 26.2091 16 24 16Z" fill="white" fill-opacity="0.6"/>
<path d="M26 36V32H22V36H26Z" fill="white" fill-opacity="0.6"/>
</svg>
