<svg width="205" height="21" viewBox="0 0 205 21" fill="none" xmlns="http://www.w3.org/2000/svg">
<path fill-rule="evenodd" clip-rule="evenodd" d="M4.44049 13.8589C7.61716 13.8589 9.39335 11.6618 9.39335 9.16035C9.39335 6.32092 7.20726 4.36035 4.40634 4.36035H0V19.7744H2.45935V13.8589H4.44049ZM81.2611 18.5913V19.7406H83.5155V8.85613H81.2269V9.97162C81.2269 9.97162 79.9289 8.5857 77.777 8.5857C75.3518 8.5857 72.3117 10.1744 72.3117 14.3322C72.3117 18.0505 75.181 20.0449 77.9478 20.0449C80.0655 20.0449 81.2611 18.5913 81.2611 18.5913ZM31.1859 12.9125H25.8915V8.88993H23.5346V19.7744H25.8915V15.4139H31.1859V19.7744H33.5428V8.88993H31.1859V12.9125ZM74.6345 14.3322C74.6345 15.7519 75.7275 17.5096 78.1185 17.5096C80.2363 17.5096 81.1927 16.2251 81.1927 16.2251V12.3716C80.4413 11.5604 79.3482 11.0871 78.1185 11.0871C76.0691 11.0871 74.6345 12.473 74.6345 14.3322ZM94.6509 12.9125H89.3564V8.88993H86.9995V19.7744H89.3564V15.4139H94.6509V19.7744H97.0077V8.88993H94.6509V12.9125ZM111.661 19.7744H114.701V16.766H111.661V19.7744ZM2.39104 11.3237H4.71376C5.32859 11.3237 5.84096 11.1209 6.25085 10.7491C6.66074 10.3773 6.86569 9.83641 6.86569 9.19416C6.86569 8.5857 6.66074 8.07866 6.28501 7.67303C5.90927 7.26739 5.36275 7.06458 4.74791 7.06458H2.39104V11.3237ZM48.8796 14.3322C48.8796 18.0843 51.8855 20.0787 54.5498 20.0787C57.0075 20.0787 58.4704 18.6021 58.7648 18.305C58.7977 18.2718 58.8161 18.2533 58.8195 18.2533L58.1363 16.3266C57.8289 16.6646 56.4968 17.5773 54.9597 17.5773C52.8419 17.5773 51.2706 16.3266 51.2706 14.3322C51.2706 12.8787 52.3637 11.1209 54.9255 11.1209C56.5651 11.1209 57.9655 12.4054 57.9655 12.4054L58.6145 10.4787C58.3413 9.97162 56.8383 8.61951 54.5839 8.61951C51.3731 8.61951 48.8796 11.0533 48.8796 14.3322ZM66.3342 20.0787C63.6699 20.0787 60.664 18.0843 60.664 14.3322C60.664 11.0533 63.1575 8.61951 66.3683 8.61951C68.6227 8.61951 70.1257 9.97162 70.3989 10.4787L69.7499 12.4054C69.7499 12.4054 68.3495 11.1209 66.7099 11.1209C64.1481 11.1209 63.055 12.8787 63.055 14.3322C63.055 16.3266 64.6263 17.5773 66.744 17.5773C68.2811 17.5773 69.6133 16.6646 69.9207 16.3266L70.6039 18.2533C70.6039 18.2533 69.0668 20.0787 66.3342 20.0787ZM99.3646 14.3322C99.3646 18.0843 102.37 20.0787 105.035 20.0787C107.802 20.0787 109.304 18.2533 109.304 18.2533L108.621 16.3266C108.314 16.6646 106.982 17.5773 105.445 17.5773C103.327 17.5773 101.756 16.3266 101.756 14.3322C101.756 12.8787 102.849 11.1209 105.411 11.1209C107.05 11.1209 108.451 12.4054 108.451 12.4054L109.1 10.4787C108.826 9.97162 107.323 8.61951 105.069 8.61951C101.858 8.61951 99.3646 11.0533 99.3646 14.3322ZM42.0822 17.7463C44.0292 17.7463 45.1906 16.6984 45.498 16.2927L46.1811 18.1181C46.0445 18.3885 44.4733 20.1125 42.0481 20.1125C38.6665 20.1125 36.2413 17.9153 36.2413 14.3998C36.2413 11.7294 38.0516 8.65331 41.7407 8.65331C44.9856 8.65331 47.0009 11.2561 47.0009 14.2984C47.0009 14.6364 46.9668 14.9068 46.9326 15.1435H38.6323C38.7689 16.0223 39.6912 17.7463 42.0822 17.7463ZM38.6665 13.2505C38.7689 12.6082 39.5204 11.1209 41.6382 11.1209C43.3461 11.1209 44.3708 12.1688 44.6441 13.2505H38.6665ZM16.0541 17.7463C18.0011 17.7463 19.1624 16.6984 19.4699 16.2927L20.153 18.1181C20.0164 18.3885 18.4451 20.1125 16.0199 20.1125C12.6383 20.1125 10.2131 17.9153 10.2131 14.3998C10.2131 11.7294 12.0235 8.65331 15.7125 8.65331C18.9575 8.65331 20.9728 11.2561 20.9728 14.2984C20.9728 14.6364 20.9386 14.9068 20.9045 15.1435H12.6383C12.7408 16.0223 13.6972 17.7463 16.0541 17.7463ZM12.6383 13.2505C12.7408 12.6082 13.4923 11.1209 15.61 11.1209C17.3521 11.1209 18.3427 12.1688 18.6159 13.2505H12.6383Z" fill="#50287E"/>
<path d="M120.03 15.4141L111.661 0H128.364L120.03 15.4141Z" fill="#CEDC01"/>
<path fill-rule="evenodd" clip-rule="evenodd" d="M174.688 18.8319C176.288 18.8319 177.728 18.1279 178.64 16.8159L179.008 17.9199C178.304 19.4239 176.256 20.1759 174.656 20.1759C171.296 20.1759 169.12 17.4239 169.12 14.2559C169.12 11.0079 171.36 8.33594 174.656 8.33594C176.16 8.33594 178.24 9.07194 178.928 10.5439L178.56 11.6799C177.632 10.3519 176.304 9.67994 174.688 9.67994C171.936 9.67994 170.368 11.6799 170.368 14.2559C170.368 16.8959 172.048 18.8319 174.688 18.8319ZM135.72 19.9999H134.472V8.51194H143.432V19.9999H142.2V9.83994H135.72V19.9999ZM153.44 19.9999H147.376V8.51194H153.44V9.83994H148.624V13.4239H152.96V14.7519H148.624V18.6719H153.44V19.9999ZM156.872 19.9999H158.12V14.7519H164.728V19.9999H165.976V8.51194H164.728V13.4239H158.12V8.51194H156.872V19.9999ZM191.288 8.51194H189.864L183.336 18.1279V8.51194H182.088V19.9999H183.512L190.04 10.4319V19.9999H191.288V8.51194ZM203.184 19.9999H204.432V8.51194H203.008L196.48 18.1279V8.51194H195.232V19.9999H196.656L203.184 10.4319V19.9999Z" fill="#50287E"/>
</svg>
