<svg width="160" height="16" viewBox="0 0 160 16" fill="none" xmlns="http://www.w3.org/2000/svg">
<path fill-rule="evenodd" clip-rule="evenodd" d="M7.33139 6.97929C7.33139 8.88515 5.9451 10.5591 3.46575 10.5591H1.91949V15.0662H0V3.32214H3.43909C5.62518 3.32214 7.33139 4.81591 7.33139 6.97929ZM63.4233 15.0404V14.1648C63.4233 14.1648 62.4901 15.2723 60.8373 15.2723C58.6779 15.2723 56.4384 13.7527 56.4384 10.9197C56.4384 7.75189 58.8112 6.54146 60.704 6.54146C62.3835 6.54146 63.3966 7.5974 63.3966 7.5974V6.7475H65.1828V15.0404H63.4233ZM20.208 9.83807H24.3402V6.77325H26.1797V15.0662H24.3402V11.7439H20.208V15.0662H18.3685V6.77325H20.208V9.83807ZM60.9705 13.3406C59.1044 13.3406 58.2513 12.0014 58.2513 10.9197C58.2513 9.50321 59.371 8.44729 60.9705 8.44729C61.9303 8.44729 62.7835 8.8079 63.3699 9.42595V12.362C63.3699 12.362 62.6235 13.3406 60.9705 13.3406ZM69.7416 9.83807H73.8739V6.77325H75.7133V15.0662H73.8739V11.7439H69.7416V15.0662H67.902V6.77325H69.7416V9.83807ZM89.5227 15.0662H87.15V12.7741H89.5227V15.0662ZM3.67903 8.62755H1.86617V5.38251H3.70568C4.18556 5.38251 4.61211 5.53703 4.90537 5.84609C5.19862 6.15514 5.35858 6.54146 5.35858 7.00505C5.35858 7.49438 5.19862 7.90649 4.87871 8.18976C4.5588 8.47304 4.1589 8.62755 3.67903 8.62755ZM42.5755 15.298C40.496 15.298 38.1499 13.7785 38.1499 10.9197C38.1499 8.42154 40.0961 6.56722 42.6021 6.56722C44.3616 6.56722 45.5347 7.5974 45.7479 7.98374L45.2414 9.45171C45.2414 9.45171 44.1484 8.47304 42.8687 8.47304C40.8692 8.47304 40.0161 9.81232 40.0161 10.9197C40.0161 12.4393 41.2425 13.3922 42.8954 13.3922C44.0951 13.3922 45.1347 12.6968 45.3747 12.4393L45.9079 13.9072C45.9052 13.9072 45.8909 13.9213 45.8652 13.9467C45.6355 14.173 44.4936 15.298 42.5755 15.298ZM47.3475 10.9197C47.3475 13.7785 49.6936 15.298 51.773 15.298C53.9058 15.298 55.1055 13.9072 55.1055 13.9072L54.5723 12.4393C54.3323 12.6968 53.2926 13.3922 52.0929 13.3922C50.44 13.3922 49.2137 12.4393 49.2137 10.9197C49.2137 9.81232 50.0668 8.47304 52.0663 8.47304C53.3459 8.47304 54.4389 9.45171 54.4389 9.45171L54.9455 7.98374C54.7323 7.5974 53.5592 6.56722 51.7996 6.56722C49.2937 6.56722 47.3475 8.42154 47.3475 10.9197ZM81.9785 15.298C79.8985 15.298 77.5529 13.7785 77.5529 10.9197C77.5529 8.42154 79.4989 6.56722 82.0051 6.56722C83.7643 6.56722 84.9374 7.5974 85.1512 7.98374L84.6447 9.45171C84.6447 9.45171 83.5512 8.47304 82.272 8.47304C80.2724 8.47304 79.4193 9.81232 79.4193 10.9197C79.4193 12.4393 80.6455 13.3922 82.2985 13.3922C83.4982 13.3922 84.5378 12.6968 84.7774 12.4393L85.3104 13.9072C85.3104 13.9072 84.1382 15.298 81.9785 15.298ZM35.5106 12.4135C35.2707 12.7226 34.3643 13.521 32.8446 13.521C30.9785 13.521 30.2587 12.2074 30.152 11.5379H36.6303C36.657 11.3575 36.6836 11.1515 36.6836 10.894C36.6836 8.57605 35.1107 6.59297 32.5781 6.59297C29.6988 6.59297 28.2859 8.93666 28.2859 10.9712C28.2859 13.6497 30.1787 15.3238 32.818 15.3238C34.7109 15.3238 35.9372 14.0103 36.0438 13.8042L35.5106 12.4135ZM32.4981 8.47304C30.8452 8.47304 30.2587 9.60622 30.1787 10.0956H34.8442C34.6309 9.27144 33.8311 8.47304 32.4981 8.47304ZM15.196 12.4135C14.956 12.7226 14.0496 13.521 12.53 13.521C10.6905 13.521 9.94404 12.2074 9.86404 11.5379H16.3157C16.3423 11.3575 16.369 11.1515 16.369 10.894C16.369 8.57605 14.7961 6.59297 12.2634 6.59297C9.3842 6.59297 7.9712 8.93666 7.9712 10.9712C7.9712 13.6497 9.86404 15.3238 12.5033 15.3238C14.3962 15.3238 15.6226 14.0103 15.7292 13.8042L15.196 12.4135ZM12.1834 8.47304C10.5306 8.47304 9.94404 9.60622 9.86404 10.0956H14.5295C14.3163 9.27144 13.5431 8.47304 12.1834 8.47304ZM139.426 12.8122C138.715 13.8118 137.591 14.3482 136.342 14.3482C134.281 14.3482 132.97 12.8731 132.97 10.8617C132.97 8.89902 134.194 7.37521 136.342 7.37521C137.603 7.37521 138.64 7.88721 139.364 8.89902L139.651 8.0335C139.114 6.91197 137.491 6.35121 136.317 6.35121C133.744 6.35121 131.996 8.38702 131.996 10.8617C131.996 13.2754 133.694 15.3722 136.317 15.3722C137.566 15.3722 139.164 14.7992 139.714 13.6533L139.426 12.8122ZM104.954 15.2381H105.928V7.49712H110.985V15.2381H111.947V6.48531H104.954V15.2381ZM115.025 15.2381H119.758V14.2263H115.999V11.2396H119.383V10.2278H115.999V7.49712H119.758V6.48531H115.025V15.2381ZM123.411 15.2381H122.437V6.48531H123.411V10.2278H128.568V6.48531H129.542V15.2381H128.568V11.2396H123.411V15.2381ZM148.187 6.48531H149.298V15.2381H148.324V7.94816L143.229 15.2381H142.117V6.48531H143.092V13.8118L148.187 6.48531ZM158.445 6.48531H159.557V15.2381H158.583V7.94816L153.488 15.2381H152.376V6.48531H153.35V13.8118L158.445 6.48531Z" fill="white"/>
<path d="M93.6803 11.7441L87.1484 0H100.185L93.6803 11.7441Z" fill="#CEDC01"/>
</svg>
