<svg width="160" height="16" viewBox="0 0 160 16" fill="none" xmlns="http://www.w3.org/2000/svg">
<path fill-rule="evenodd" clip-rule="evenodd" d="M7.33139 6.97941C7.33139 8.88528 5.9451 10.5593 3.46575 10.5593H1.91949V15.0663H0V3.32227H3.43909C5.62518 3.32227 7.33139 4.81603 7.33139 6.97941ZM63.4233 15.0405V14.1649C63.4233 14.1649 62.4901 15.2724 60.8373 15.2724C58.6779 15.2724 56.4384 13.7529 56.4384 10.9199C56.4384 7.75202 58.8112 6.54158 60.704 6.54158C62.3835 6.54158 63.3966 7.59752 63.3966 7.59752V6.74762H65.1828V15.0405H63.4233ZM20.208 9.83819H24.3402V6.77337H26.1797V15.0663H24.3402V11.744H20.208V15.0663H18.3685V6.77337H20.208V9.83819ZM60.9705 13.3407C59.1044 13.3407 58.2513 12.0015 58.2513 10.9199C58.2513 9.50333 59.371 8.44741 60.9705 8.44741C61.9303 8.44741 62.7834 8.80802 63.3699 9.42608V12.3621C63.3699 12.3621 62.6234 13.3407 60.9705 13.3407ZM69.7416 9.83819H73.8739V6.77337H75.7133V15.0663H73.8739V11.744H69.7416V15.0663H67.902V6.77337H69.7416V9.83819ZM89.5227 15.0663H87.15V12.7742H89.5227V15.0663ZM3.67903 8.62768H1.86618V5.38263H3.70569C4.18556 5.38263 4.61211 5.53716 4.90537 5.84621C5.19863 6.15527 5.35859 6.54158 5.35859 7.00517C5.35859 7.4945 5.19863 7.90661 4.87871 8.18989C4.5588 8.47316 4.1589 8.62768 3.67903 8.62768ZM42.5755 15.2982C40.496 15.2982 38.1499 13.7786 38.1499 10.9199C38.1499 8.42166 40.0961 6.56734 42.6021 6.56734C44.3616 6.56734 45.5347 7.59752 45.7479 7.98387L45.2414 9.45183C45.2414 9.45183 44.1484 8.47316 42.8687 8.47316C40.8692 8.47316 40.0161 9.81244 40.0161 10.9199C40.0161 12.4394 41.2425 13.3923 42.8954 13.3923C44.0951 13.3923 45.1348 12.6969 45.3747 12.4394L45.9079 13.9074C45.9052 13.9074 45.8909 13.9215 45.8652 13.9468C45.6355 14.1732 44.4936 15.2982 42.5755 15.2982ZM47.3475 10.9199C47.3475 13.7786 49.6936 15.2982 51.773 15.2982C53.9058 15.2982 55.1055 13.9074 55.1055 13.9074L54.5723 12.4394C54.3323 12.6969 53.2926 13.3923 52.0929 13.3923C50.44 13.3923 49.2137 12.4394 49.2137 10.9199C49.2137 9.81244 50.0668 8.47316 52.0663 8.47316C53.3459 8.47316 54.4389 9.45183 54.4389 9.45183L54.9455 7.98387C54.7323 7.59752 53.5592 6.56734 51.7996 6.56734C49.2937 6.56734 47.3475 8.42166 47.3475 10.9199ZM81.9785 15.2982C79.8985 15.2982 77.5529 13.7786 77.5529 10.9199C77.5529 8.42166 79.4989 6.56734 82.0051 6.56734C83.7643 6.56734 84.9374 7.59752 85.1512 7.98387L84.6447 9.45183C84.6447 9.45183 83.5512 8.47316 82.272 8.47316C80.2724 8.47316 79.4193 9.81244 79.4193 10.9199C79.4193 12.4394 80.6455 13.3923 82.2985 13.3923C83.4981 13.3923 84.5378 12.6969 84.7774 12.4394L85.3104 13.9074C85.3104 13.9074 84.1381 15.2982 81.9785 15.2982ZM35.5106 12.4136C35.2707 12.7227 34.3643 13.5211 32.8446 13.5211C30.9785 13.5211 30.2587 12.2076 30.152 11.538H36.6303C36.657 11.3577 36.6836 11.1516 36.6836 10.8941C36.6836 8.57617 35.1107 6.59309 32.5781 6.59309C29.6988 6.59309 28.2859 8.93678 28.2859 10.9714C28.2859 13.6498 30.1787 15.3239 32.818 15.3239C34.7109 15.3239 35.9372 14.0104 36.0438 13.8044L35.5106 12.4136ZM32.4981 8.47316C30.8452 8.47316 30.2587 9.60634 30.1787 10.0957H34.8442C34.6309 9.27156 33.8311 8.47316 32.4981 8.47316ZM15.196 12.4136C14.956 12.7227 14.0496 13.5211 12.53 13.5211C10.6905 13.5211 9.94404 12.2076 9.86404 11.538H16.3157C16.3423 11.3577 16.369 11.1516 16.369 10.8941C16.369 8.57617 14.7961 6.59309 12.2634 6.59309C9.3842 6.59309 7.9712 8.93678 7.9712 10.9714C7.9712 13.6498 9.86404 15.3239 12.5033 15.3239C14.3962 15.3239 15.6226 14.0104 15.7292 13.8044L15.196 12.4136ZM12.1834 8.47316C10.5306 8.47316 9.94404 9.60634 9.86404 10.0957H14.5295C14.3163 9.27156 13.5431 8.47316 12.1834 8.47316ZM139.426 12.8123C138.715 13.8119 137.591 14.3483 136.342 14.3483C134.281 14.3483 132.97 12.8732 132.97 10.8618C132.97 8.89914 134.194 7.37533 136.342 7.37533C137.603 7.37533 138.64 7.88733 139.364 8.89914L139.651 8.03362C139.114 6.91209 137.491 6.35133 136.317 6.35133C133.744 6.35133 131.996 8.38714 131.996 10.8618C131.996 13.2755 133.694 15.3723 136.317 15.3723C137.566 15.3723 139.164 14.7993 139.714 13.6534L139.426 12.8123ZM104.954 15.2382H105.928V7.49724H110.985V15.2382H111.947V6.48543H104.954V15.2382ZM115.025 15.2382H119.758V14.2264H115.999V11.2397H119.383V10.2279H115.999V7.49724H119.758V6.48543H115.025V15.2382ZM123.411 15.2382H122.437V6.48543H123.411V10.2279H128.568V6.48543H129.542V15.2382H128.568V11.2397H123.411V15.2382ZM148.187 6.48543H149.298V15.2382H148.324V7.94829L143.229 15.2382H142.117V6.48543H143.092V13.8119L148.187 6.48543ZM159.557 6.48543V15.2382H158.583V7.94829L153.488 15.2382H152.376V6.48543H153.35V13.8119L158.445 6.48543H159.557Z" fill="#50287E"/>
<path d="M93.6819 11.7441L87.15 0H100.187L93.6819 11.7441Z" fill="#CEDC01"/>
</svg>
