<svg width="205" height="21" viewBox="0 0 205 21" fill="none" xmlns="http://www.w3.org/2000/svg">
<path fill-rule="evenodd" clip-rule="evenodd" d="M9.39335 9.16035C9.39335 11.6618 7.61716 13.8589 4.44049 13.8589H2.45935V19.7744H0V4.36035H4.40634C7.20726 4.36035 9.39335 6.32092 9.39335 9.16035ZM81.2611 19.7406V18.5913C81.2611 18.5913 80.0655 20.0449 77.9478 20.0449C75.181 20.0449 72.3117 18.0505 72.3117 14.3322C72.3117 10.1744 75.3518 8.5857 77.777 8.5857C79.9289 8.5857 81.2269 9.97162 81.2269 9.97162V8.85613H83.5155V19.7406H81.2611ZM25.8915 12.9125H31.1859V8.88993H33.5428V19.7744H31.1859V15.4139H25.8915V19.7744H23.5346V8.88993H25.8915V12.9125ZM78.1185 17.5096C75.7275 17.5096 74.6345 15.7519 74.6345 14.3322C74.6345 12.473 76.0691 11.0871 78.1185 11.0871C79.3482 11.0871 80.4413 11.5604 81.1927 12.3716V16.2251C81.1927 16.2251 80.2363 17.5096 78.1185 17.5096ZM89.3564 12.9125H94.6509V8.88993H97.0077V19.7744H94.6509V15.4139H89.3564V19.7744H86.9995V8.88993H89.3564V12.9125ZM114.701 19.7744H111.661V16.766H114.701V19.7744ZM4.71376 11.3237H2.39104V7.06458H4.74791C5.36275 7.06458 5.90927 7.26739 6.28501 7.67303C6.66074 8.07866 6.86569 8.5857 6.86569 9.19416C6.86569 9.83641 6.66074 10.3773 6.25085 10.7491C5.84096 11.1209 5.32859 11.3237 4.71376 11.3237ZM54.5498 20.0787C51.8855 20.0787 48.8796 18.0843 48.8796 14.3322C48.8796 11.0533 51.3731 8.61951 54.5839 8.61951C56.8383 8.61951 58.3413 9.97162 58.6145 10.4787L57.9655 12.4054C57.9655 12.4054 56.5651 11.1209 54.9255 11.1209C52.3637 11.1209 51.2706 12.8787 51.2706 14.3322C51.2706 16.3266 52.8419 17.5773 54.9597 17.5773C56.4968 17.5773 57.8289 16.6646 58.1363 16.3266L58.8195 18.2533C58.8161 18.2533 58.7977 18.2718 58.7648 18.305C58.4704 18.6021 57.0075 20.0787 54.5498 20.0787ZM60.664 14.3322C60.664 18.0843 63.6699 20.0787 66.3342 20.0787C69.0668 20.0787 70.6039 18.2533 70.6039 18.2533L69.9207 16.3266C69.6133 16.6646 68.2811 17.5773 66.744 17.5773C64.6263 17.5773 63.055 16.3266 63.055 14.3322C63.055 12.8787 64.1481 11.1209 66.7099 11.1209C68.3495 11.1209 69.7499 12.4054 69.7499 12.4054L70.3989 10.4787C70.1257 9.97162 68.6227 8.61951 66.3683 8.61951C63.1575 8.61951 60.664 11.0533 60.664 14.3322ZM105.035 20.0787C102.37 20.0787 99.3646 18.0843 99.3646 14.3322C99.3646 11.0533 101.858 8.61951 105.069 8.61951C107.323 8.61951 108.826 9.97162 109.1 10.4787L108.451 12.4054C108.451 12.4054 107.05 11.1209 105.411 11.1209C102.849 11.1209 101.756 12.8787 101.756 14.3322C101.756 16.3266 103.327 17.5773 105.445 17.5773C106.982 17.5773 108.314 16.6646 108.621 16.3266L109.304 18.2533C109.304 18.2533 107.802 20.0787 105.035 20.0787ZM45.498 16.2927C45.1906 16.6984 44.0292 17.7463 42.0822 17.7463C39.6912 17.7463 38.7689 16.0223 38.6323 15.1435H46.9326C46.9668 14.9068 47.0009 14.6364 47.0009 14.2984C47.0009 11.2561 44.9856 8.65331 41.7407 8.65331C38.0516 8.65331 36.2413 11.7294 36.2413 14.3998C36.2413 17.9153 38.6665 20.1125 42.0481 20.1125C44.4733 20.1125 46.0445 18.3885 46.1811 18.1181L45.498 16.2927ZM41.6382 11.1209C39.5204 11.1209 38.7689 12.6082 38.6665 13.2505H44.6441C44.3708 12.1688 43.3461 11.1209 41.6382 11.1209ZM19.4699 16.2927C19.1624 16.6984 18.0011 17.7463 16.0541 17.7463C13.6972 17.7463 12.7408 16.0223 12.6383 15.1435H20.9045C20.9386 14.9068 20.9728 14.6364 20.9728 14.2984C20.9728 11.2561 18.9575 8.65331 15.7125 8.65331C12.0235 8.65331 10.2131 11.7294 10.2131 14.3998C10.2131 17.9153 12.6383 20.1125 16.0199 20.1125C18.4451 20.1125 20.0164 18.3885 20.153 18.1181L19.4699 16.2927ZM15.61 11.1209C13.4923 11.1209 12.7408 12.6082 12.6383 13.2505H18.6159C18.3427 12.1688 17.3521 11.1209 15.61 11.1209ZM178.64 16.816C177.728 18.128 176.288 18.832 174.688 18.832C172.048 18.832 170.368 16.896 170.368 14.256C170.368 11.68 171.936 9.68 174.688 9.68C176.304 9.68 177.632 10.352 178.56 11.68L178.928 10.544C178.24 9.072 176.16 8.336 174.656 8.336C171.36 8.336 169.12 11.008 169.12 14.256C169.12 17.424 171.296 20.176 174.656 20.176C176.256 20.176 178.304 19.424 179.008 17.92L178.64 16.816ZM134.472 20H135.72V9.84H142.2V20H143.432V8.512H134.472V20ZM147.376 20H153.44V18.672H148.624V14.752H152.96V13.424H148.624V9.84H153.44V8.512H147.376V20ZM158.12 20H156.872V8.512H158.12V13.424H164.728V8.512H165.976V20H164.728V14.752H158.12V20ZM189.864 8.512H191.288V20H190.04V10.432L183.512 20H182.088V8.512H183.336V18.128L189.864 8.512ZM204.432 20H203.184V10.432L196.656 20H195.232V8.512H196.48V18.128L203.008 8.512H204.432V20Z" fill="white"/>
<path d="M120.029 15.4141L111.66 0H128.363L120.029 15.4141Z" fill="#CEDC01"/>
</svg>
