<svg width="48" height="48" viewBox="0 0 48 48" fill="none" xmlns="http://www.w3.org/2000/svg">
<path d="M26 12V24H45.9552C45.9848 23.6706 46 23.3371 46 23C46 16.9249 41.0751 12 35 12H26Z" fill="#BEDCFB"/>
<path d="M2 8H26V24H46V36H42C42 32.6863 39.3137 30 36 30C32.6863 30 30 32.6863 30 36H20C20 34.4633 19.4223 33.0615 18.4722 32H22V12L2 12V8Z" fill="#E4E4E4"/>
<path d="M14 42C17.3137 42 20 39.3137 20 36C20 32.6863 17.3137 30 14 30C10.6863 30 8 32.6863 8 36C8 39.3137 10.6863 42 14 42Z" fill="#37455C"/>
<path d="M36 42C39.3137 42 42 39.3137 42 36C42 32.6863 39.3137 30 36 30C32.6863 30 30 32.6863 30 36C30 39.3137 32.6863 42 36 42Z" fill="#37455C"/>
<path d="M14 16H10V20L6 20V24H10V28H14V24H18V20L14 20V16Z" fill="#ED0C0C"/>
</svg>
